<?xml version="1.0" encoding="UTF-8" standalone="no"?>
<!-- Created with Inkscape (http://www.inkscape.org/) -->

<svg
   width="248.42351"
   height="126.16265"
   viewBox="0 0 65.72872 33.380537"
   version="1.1"
   id="svg1"
   inkscape:version="1.3.1 (9b9bdc1480, 2023-11-25, custom)"
   sodipodi:docname="development-framework.svg"
   xmlns:inkscape="http://www.inkscape.org/namespaces/inkscape"
   xmlns:sodipodi="http://sodipodi.sourceforge.net/DTD/sodipodi-0.dtd"
   xmlns="http://www.w3.org/2000/svg"
   xmlns:svg="http://www.w3.org/2000/svg">
  <sodipodi:namedview
     id="namedview1"
     pagecolor="#ffffff"
     bordercolor="#000000"
     borderopacity="0.25"
     inkscape:showpageshadow="2"
     inkscape:pageopacity="0.0"
     inkscape:pagecheckerboard="0"
     inkscape:deskcolor="#d1d1d1"
     inkscape:document-units="mm"
     inkscape:zoom="7.745998"
     inkscape:cx="141.55697"
     inkscape:cy="47.121107"
     inkscape:window-width="1920"
     inkscape:window-height="1082"
     inkscape:window-x="0"
     inkscape:window-y="27"
     inkscape:window-maximized="1"
     inkscape:current-layer="text1"
     showgrid="false" />
  <defs
     id="defs1">
    <marker
       style="overflow:visible"
       id="RoundedArrow"
       refX="0"
       refY="0"
       orient="auto-start-reverse"
       inkscape:stockid="Rounded arrow"
       markerWidth="1"
       markerHeight="1"
       viewBox="0 0 1 1"
       inkscape:isstock="true"
       inkscape:collect="always"
       preserveAspectRatio="xMidYMid">
      <path
         transform="scale(0.7)"
         d="m -0.21114562,-4.1055728 6.42229122,3.21114561 a 1,1 90 0 1 0,1.78885438 L -0.21114562,4.1055728 A 1.236068,1.236068 31.717474 0 1 -2,3 v -6 a 1.236068,1.236068 148.28253 0 1 1.78885438,-1.1055728 z"
         style="fill:context-stroke;fill-rule:evenodd;stroke:none"
         id="path8" />
    </marker>
  </defs>
  <g
     inkscape:label="Layer 1"
     inkscape:groupmode="layer"
     id="layer1"
     transform="translate(-2.0698105,27.706275)">
    <path
       style="fill:none;stroke:#000000;stroke-width:0.606302;stroke-dasharray:none;stroke-opacity:1;marker-end:url(#RoundedArrow)"
       d="M 49.379374,-12.731929 C 46.611186,4.9556778 15.907319,-10.704376 4.0684434,3.3773897"
       id="path2"
       inkscape:label="path2"
       sodipodi:nodetypes="cc" />
    <g
       id="text1"
       style="font-size:5.92335px;line-height:0;letter-spacing:0px;fill:none;stroke:#000000;stroke-width:0.740417"
       transform="matrix(0.98482912,-0.17364043,0.17365594,0.98478638,0,0)"
       aria-label="DEVELOPMENT&#10;FRAMEWORK">
      <path
         style="font-weight:bold;line-height:1;font-family:Purisa;-inkscape-font-specification:'Purisa Bold';text-align:center;baseline-shift:baseline;text-anchor:middle;fill:#000000;stroke:none"
         d="m 36.553564,-16.427691 q -0.148084,0 -0.183624,0.02962 -0.03554,0.02962 -0.03554,0.154007 0,0.189547 0.165854,1.391987 0.171777,1.196517 0.171777,1.569688 0,0.130313 -0.01185,0.24878 l -0.03554,0.213241 h 0.242857 q 0.527178,0 1.226134,-0.722649 0.396864,-0.408711 0.533101,-0.829269 0.136237,-0.420557 0.136237,-1.030662 0,-0.242858 -0.03554,-0.331708 -0.03554,-0.08885 -0.171777,-0.231011 -0.14216,-0.14216 -0.313938,-0.207317 -0.165853,-0.06516 -0.562718,-0.136237 -0.752265,-0.118467 -1.125436,-0.118467 z m -1.800699,0.136237 q 0.01185,-0.14216 0.106621,-0.260627 0.100697,-0.124391 0.189547,-0.124391 0.05923,-0.01777 0.112543,-0.100697 0.112544,-0.171777 0.639722,-0.225087 0.621952,-0.05923 0.852963,-0.05923 0.272474,0 0.663415,0.06516 1.119513,0.177701 1.569688,0.533102 0.456097,0.349478 0.456097,1.06028 0,0.616028 -0.225087,1.166899 -0.225087,0.550872 -0.580488,0.924043 -0.355401,0.373171 -0.758189,0.616028 -0.396864,0.242858 -0.781882,0.325785 -0.130314,0.03554 -0.195471,0.09477 -0.06516,0.06516 -0.07108,0.124391 -0.0059,0.05923 -0.04739,0.118467 -0.04146,0.06516 -0.130313,0.09477 -0.05923,0.01777 -0.124391,0.01777 -0.10662,0 -0.183623,-0.04146 -0.07108,-0.03554 -0.077,-0.100697 l -0.08885,-0.03554 q -0.09477,-0.04146 -0.154007,-0.118467 -0.05923,-0.07108 -0.05923,-0.195471 0,-0.207317 0.159931,-0.266551 0.06516,-0.04739 0.06516,-0.420557 0,-0.231011 -0.02962,-0.473868 -0.02962,-0.242858 -0.100697,-0.734496 -0.06516,-0.497561 -0.124391,-1.101743 l -0.08885,-0.918119 -0.136237,0.01185 q -0.183624,0.02369 -0.349478,0.1777 -0.165853,0.148084 -0.236934,0.148084 -0.077,0 -0.1777,-0.100697 -0.09477,-0.10662 -0.09477,-0.201394 z"
         id="path1" />
      <path
         style="font-weight:bold;font-size:4.23333px;line-height:1;font-family:Purisa;-inkscape-font-specification:'Purisa Bold';text-align:center;baseline-shift:baseline;text-anchor:middle;fill:#000000;stroke:none"
         d="m 40.061187,-14.901728 q 0,-0.249766 0.06773,-0.359833 0.06773,-0.114299 0.1524,-0.114299 0.03387,0 0.143933,-0.05503 0.1143,-0.05503 0.254,-0.118533 0.143933,-0.06773 0.3937,-0.122767 0.254,-0.05503 0.537633,-0.05503 0.444499,0 0.444499,0.169333 0,0.1143 -0.457199,0.182034 -0.3683,0.05503 -0.6731,0.152399 -0.3048,0.09737 -0.402166,0.182034 -0.05503,0.0508 -0.05503,0.135466 0,0.0085 0.02117,0.2159 0.02117,0.207433 0.04657,0.4318 0.0254,0.224366 0.03387,0.253999 0.105834,-0.04657 0.529167,-0.135466 0.427566,-0.0889 0.588433,-0.0889 0.0889,0 0.131233,0.04657 0.04233,0.04657 0.04233,0.101599 0,0.06773 -0.0508,0.110067 -0.09737,0.09313 -0.622299,0.211666 -0.524933,0.1143 -0.575733,0.143934 -0.0254,0.01693 -0.0254,0.05503 0,0.309033 0.0085,0.508 l 0.0127,0.300566 h 0.1778 q 0.198967,0 0.508,-0.0762 0.309033,-0.0762 0.512233,-0.1778 0.143933,-0.08043 0.198966,-0.08043 0.07197,0 0.127,0.06773 0.05927,0.06773 0.05927,0.131233 0,0.131234 -0.258233,0.2667 -0.254,0.135467 -0.605366,0.2159 -0.347134,0.08043 -0.630767,0.08043 -0.334433,0 -0.406399,-0.122766 -0.04657,-0.08043 -0.07197,-0.359833 -0.0254,-0.2794 -0.05927,-0.804333 -0.02963,-0.529166 -0.06773,-0.910166 -0.02963,-0.3556 -0.02963,-0.381 z m 2.645825,-0.516466 q 0.0085,-0.105833 0.08467,-0.156633 0.0762,-0.05503 0.143933,-0.05503 0.07197,0 0.118533,0.05927 0.0508,0.05927 0.08043,0.131234 0.03387,0.07197 0.05503,0.08467 0.09737,0 0.09737,0.08467 0,0.04233 0.05503,0.173566 0.05927,0.131234 0.1905,0.440267 0.131234,0.304799 0.258233,0.651932 0.287867,0.770466 0.410633,0.969433 0.08467,-0.148167 0.254,-0.541866 0.169333,-0.397933 0.2413,-0.630766 0.118533,-0.359833 0.313266,-0.821266 0.194734,-0.461433 0.321733,-0.537633 l 0.01693,-0.0042 q 0.01693,-0.0042 0.03387,-0.0042 0.06773,0 0.143934,0.0381 0.08043,0.03387 0.08043,0.118533 0,0.09737 -0.07197,0.3048 -0.06773,0.2032 -0.211666,0.571499 -0.1397,0.3683 -0.237067,0.656167 -0.105833,0.317499 -0.419099,0.931332 -0.1651,0.3175 -0.258233,0.440266 -0.09313,0.122767 -0.2032,0.122767 -0.1778,0 -0.2794,-0.131233 -0.09737,-0.135467 -0.2921,-0.6223 l -0.469899,-1.168399 q -0.2286,-0.571499 -0.2286,-0.651932 -0.0042,0.0042 -0.0042,0.0085 -0.0042,-0.0085 -0.114299,-0.1778 -0.110067,-0.169333 -0.110067,-0.283633 z m 3.386658,0.516466 q 0,-0.249766 0.06773,-0.359833 0.06773,-0.114299 0.1524,-0.114299 0.03387,0 0.143933,-0.05503 0.1143,-0.05503 0.254,-0.118533 0.143933,-0.06773 0.393699,-0.122767 0.254,-0.05503 0.537633,-0.05503 0.4445,0 0.4445,0.169333 0,0.1143 -0.4572,0.182034 -0.368299,0.05503 -0.673099,0.152399 -0.3048,0.09737 -0.402167,0.182034 -0.05503,0.0508 -0.05503,0.135466 0,0.0085 0.02117,0.2159 0.02117,0.207433 0.04657,0.4318 0.0254,0.224366 0.03387,0.253999 0.105833,-0.04657 0.529166,-0.135466 0.427567,-0.0889 0.588433,-0.0889 0.0889,0 0.131233,0.04657 0.04233,0.04657 0.04233,0.101599 0,0.06773 -0.0508,0.110067 -0.09737,0.09313 -0.6223,0.211666 -0.524933,0.1143 -0.575733,0.143934 -0.0254,0.01693 -0.0254,0.05503 0,0.309033 0.0085,0.508 l 0.0127,0.300566 h 0.1778 q 0.198966,0 0.507999,-0.0762 0.309034,-0.0762 0.512233,-0.1778 0.143934,-0.08043 0.198967,-0.08043 0.07197,0 0.127,0.06773 0.05927,0.06773 0.05927,0.131233 0,0.131234 -0.258233,0.2667 -0.254,0.135467 -0.605366,0.2159 -0.347133,0.08043 -0.630766,0.08043 -0.334433,0 -0.4064,-0.122766 -0.04657,-0.08043 -0.07197,-0.359833 -0.0254,-0.2794 -0.05927,-0.804333 -0.02963,-0.529166 -0.06773,-0.910166 -0.02963,-0.3556 -0.02963,-0.381 z m 2.802459,-0.639232 q 0,-0.1651 0.118534,-0.1651 0.05503,0 0.101599,0.04657 0.0508,0.04657 0.07197,0.0889 0.02117,0.04233 0.02963,0.06773 0.05503,0.177799 0.118534,1.401232 0.0635,1.219199 0.126999,1.325032 0.0127,0.0254 0.0889,0.0254 0.131234,0 0.5461,-0.0889 0.414866,-0.0889 0.778933,-0.173566 0.368299,-0.0889 0.385233,-0.0889 0.07197,0 0.143933,0.05927 0.07197,0.05503 0.07197,0.135467 0,0.0635 -0.09737,0.1397 -0.143933,0.1143 -0.842433,0.279399 -0.698499,0.160867 -1.121832,0.160867 -0.296333,0 -0.359833,-0.220133 -0.05927,-0.224367 -0.110067,-1.405466 0,-0.01693 0,-0.02963 0,-0.0127 -0.0042,-0.02963 0,-0.01693 0,-0.02963 -0.04657,-1.083732 -0.04657,-1.498598 z m 5.050355,1.985431 q 0.0254,-0.1905 0.1143,-0.529166 0.0889,-0.3429 0.0889,-0.423333 0,-0.105833 -0.1143,-0.3175 -0.110066,-0.215899 -0.1651,-0.270933 -0.04233,-0.0254 -0.139699,-0.0254 -0.1905,0 -0.4953,0.09313 -0.643466,0.194733 -0.795866,1.028699 -0.04233,0.262466 -0.04233,0.334433 0,0.1397 0.1016,0.406399 0.224366,0.601133 0.609599,0.601133 0.09737,0 0.2286,-0.04657 0.135466,-0.0508 0.3556,-0.351367 0.224366,-0.3048 0.253999,-0.499533 z m -0.296333,1.126066 q -0.01693,0 -0.0381,0.02963 -0.01693,0.02963 -0.03387,0.04233 -0.0635,0.04233 -0.245533,0.06773 -0.182034,0.02963 -0.351367,0.02963 -0.127,0 -0.211666,-0.03387 -0.08043,-0.02963 -0.207433,-0.118534 -0.245534,-0.186266 -0.423333,-0.575732 -0.1778,-0.389467 -0.1778,-0.7366 0,-0.397933 0.182033,-0.795866 0.182033,-0.397933 0.474133,-0.592666 0.270933,-0.1778 0.406399,-0.186267 0.03387,-0.0085 0.156634,-0.118533 0.122766,-0.110066 0.220133,-0.110066 0.05927,0 0.1143,-0.05503 0.05927,-0.05927 0.1905,-0.05927 0.359833,0 0.571499,0.330199 0.2159,0.325967 0.2159,0.8763 0,0.351366 -0.0889,0.728132 -0.0889,0.372533 -0.220133,0.6477 -0.127,0.275166 -0.275167,0.452966 -0.148166,0.1778 -0.258233,0.1778 z m 3.433227,-2.611964 q 0,-0.1905 -0.3683,-0.2667 -0.2413,-0.0508 -0.321733,-0.0508 -0.0762,0 -0.4064,0.0635 -0.220133,0.04233 -0.2667,0.09313 -0.04657,0.0508 -0.04657,0.275166 0,0.2286 0.0254,0.499533 0.02963,0.2667 0.05927,0.321733 0.0127,0.0042 0.0508,0.0042 0.131234,0 0.372533,-0.05503 0.2413,-0.05503 0.397933,-0.135466 0.08043,-0.04233 0.135467,-0.09737 0.05503,-0.05927 0.05927,-0.09313 0.0127,-0.105833 0.160867,-0.283633 0.148167,-0.182033 0.148167,-0.275166 z m -1.350433,-0.694267 q 0.1397,0 0.351367,-0.03387 0.211666,-0.0381 0.355599,-0.0381 0.05927,0 0.09313,0.0042 0.160866,0.02117 0.228599,0.02963 0.06773,0.0085 0.1905,0.03387 0.127,0.0254 0.1778,0.0508 0.05503,0.0254 0.131233,0.07197 0.0762,0.04657 0.105834,0.110066 0.03387,0.05927 0.05927,0.148167 0.0254,0.0889 0.0254,0.2032 0,0.182033 -0.05503,0.406399 -0.0508,0.220133 -0.148167,0.224367 -0.0042,0.0085 -0.0085,0.03387 0,0.0254 0,0.02963 -0.04657,0.131233 -0.309033,0.347133 -0.262467,0.2159 -0.423333,0.245533 -0.09313,0.0254 -0.131234,0.0381 -0.03387,0.0127 -0.0508,0.03387 -0.01693,0.01693 -0.02117,0.01693 -0.08467,0.05503 -0.321733,0.05503 h -0.2032 l 0.0381,0.681566 q 0.02117,0.359833 0.02117,0.508 0,0.207433 -0.0381,0.300566 -0.0381,0.09313 -0.143934,0.1397 -0.02963,0.0127 -0.0635,0.0127 -0.143933,0 -0.173566,-0.237066 -0.04657,-0.321733 -0.110067,-1.202266 -0.05927,-0.880533 -0.05927,-1.189566 v -0.334433 l -0.04233,0.0254 q -0.09313,0.06773 -0.177799,0.06773 -0.04657,0 -0.09313,-0.04233 -0.04233,-0.04233 -0.04233,-0.110066 0,-0.131234 0.258233,-0.397933 0.135467,-0.1397 0.211667,-0.1905 0.08043,-0.05503 0.169333,-0.05503 0.03387,0 0.08467,0.0085 0.0508,0.0042 0.1143,0.0042 z m 2.480727,3.666064 q -0.1651,0 -0.2032,-0.385233 -0.0381,-0.385233 -0.0381,-1.879598 0,-0.745066 0.0127,-1.024466 0.0127,-0.2794 0.0508,-0.3302 0.08043,-0.1016 0.1905,-0.1016 0.09313,0 0.156633,0.122767 0.06773,0.118533 0.160867,0.427566 0.135467,0.452966 0.287866,0.778933 0.1524,0.325966 0.224367,0.380999 0.04657,-0.02963 0.143933,-0.169333 0.1016,-0.143933 0.283633,-0.465666 0.186267,-0.321733 0.4064,-0.761999 0.05927,-0.122767 0.169333,-0.207434 0.1143,-0.08467 0.220133,-0.08467 0.0762,0 0.131233,0.0508 0.110067,0.09737 0.1397,0.393699 0.02963,0.2921 0.0381,1.210733 0.0042,0.554566 0.0254,0.897466 0.02117,0.342899 0.04233,0.431799 0.0254,0.0889 0.04233,0.1524 0.01693,0.0635 0.01693,0.127 0,0.186267 -0.173566,0.186267 -0.08467,0 -0.1651,-0.0508 -0.0762,-0.0508 -0.105833,-0.135467 -0.02963,-0.08043 -0.05503,-0.613833 -0.0254,-0.537633 -0.04657,-1.164165 -0.02117,-0.626533 -0.04233,-0.821266 -0.02963,0.05503 -0.1397,0.283633 -0.105833,0.224366 -0.368299,0.660399 -0.09737,0.160867 -0.3048,0.300567 -0.2032,0.135466 -0.3683,0.135466 -0.0635,0 -0.169333,-0.1143 -0.1016,-0.118533 -0.198966,-0.2794 l -0.118534,-0.194733 v 0.889 q 0,0.579966 -0.0254,0.867832 -0.02117,0.287867 -0.07197,0.385233 -0.0508,0.1016 -0.148167,0.1016 z m 3.035296,-2.832098 q 0,-0.249766 0.06773,-0.359833 0.06773,-0.114299 0.1524,-0.114299 0.03387,0 0.143933,-0.05503 0.1143,-0.05503 0.254,-0.118533 0.143933,-0.06773 0.3937,-0.122767 0.253999,-0.05503 0.537632,-0.05503 0.4445,0 0.4445,0.169333 0,0.1143 -0.4572,0.182034 -0.368299,0.05503 -0.673099,0.152399 -0.3048,0.09737 -0.402166,0.182034 -0.05503,0.0508 -0.05503,0.135466 0,0.0085 0.02117,0.2159 0.02117,0.207433 0.04657,0.4318 0.0254,0.224366 0.03387,0.253999 0.105834,-0.04657 0.529167,-0.135466 0.427566,-0.0889 0.588432,-0.0889 0.0889,0 0.131234,0.04657 0.04233,0.04657 0.04233,0.101599 0,0.06773 -0.0508,0.110067 -0.09737,0.09313 -0.6223,0.211666 -0.524932,0.1143 -0.575732,0.143934 -0.0254,0.01693 -0.0254,0.05503 0,0.309033 0.0085,0.508 l 0.0127,0.300566 h 0.1778 q 0.198967,0 0.508,-0.0762 0.309033,-0.0762 0.512233,-0.1778 0.143933,-0.08043 0.198966,-0.08043 0.07197,0 0.127,0.06773 0.05927,0.06773 0.05927,0.131233 0,0.131234 -0.258233,0.2667 -0.254,0.135467 -0.605367,0.2159 -0.347133,0.08043 -0.630766,0.08043 -0.334433,0 -0.406399,-0.122766 -0.04657,-0.08043 -0.07197,-0.359833 -0.0254,-0.2794 -0.05927,-0.804333 -0.02963,-0.529166 -0.06773,-0.910166 -0.02963,-0.3556 -0.02963,-0.381 z m 3.221557,1.193799 q 0,0.2032 0.01693,0.3556 0.01693,0.1524 0.01693,0.198967 0,0.253999 -0.06773,0.452966 -0.06773,0.198966 -0.169334,0.198966 -0.177799,0 -0.228599,-0.126999 -0.0508,-0.127 -0.0508,-0.563033 0,-0.491067 0.0254,-1.375832 0.02963,-0.889 0.05927,-0.986366 0.0042,-0.01693 0.01693,-0.0381 0.0127,-0.0254 0.07197,-0.0635 0.05927,-0.04233 0.1397,-0.04233 0.08467,0 0.173567,0.05503 0.0762,0.05503 0.351366,0.419099 0.2794,0.359833 0.2794,0.4191 0.0085,0.02117 0.09737,0.148167 0.0889,0.126999 0.275167,0.423333 0.1905,0.292099 0.393699,0.660399 0.414867,0.753533 0.554567,0.808566 0.0635,-0.1016 0.126999,-1.007532 0.0762,-1.121833 0.122767,-1.333499 0.0508,-0.245534 0.182033,-0.283633 0.0381,-0.0127 0.0889,-0.0127 0.1905,0 0.1905,0.292099 0,0.09737 -0.02117,0.296333 -0.02117,0.194734 -0.06773,0.6096 -0.04233,0.410633 -0.08043,0.876299 -0.01693,0.232833 -0.02963,0.3556 -0.0127,0.118533 -0.03387,0.262466 -0.02117,0.1397 -0.04233,0.2032 -0.02117,0.0635 -0.05927,0.127 -0.0381,0.05927 -0.0889,0.0762 -0.04657,0.02117 -0.118533,0.02117 -0.3175,0 -0.563033,-0.220134 -0.2413,-0.224366 -0.491066,-0.694266 -0.118534,-0.220133 -0.211667,-0.376766 -0.09313,-0.160867 -0.127,-0.207433 -0.03387,-0.04657 -0.05927,-0.09737 -0.02117,-0.05503 -0.04233,-0.135466 -0.02117,-0.0762 -0.1143,-0.224367 -0.09313,-0.148166 -0.253999,-0.368299 -0.156634,-0.220134 -0.182033,-0.258234 -0.08043,0.3937 -0.08043,1.155699 z m 6.049424,-1.909231 q 0.182033,0 0.325966,0.06773 0.143934,0.06773 0.143934,0.160867 0,0.07197 -0.05927,0.122766 -0.05927,0.04657 -0.1524,0.0635 -0.09313,0.01693 -0.148167,0.02117 -0.0508,0.0042 -0.09737,0.0042 -0.275167,0 -0.618066,0.07197 l -0.287867,0.0635 0.05503,0.292099 q 0.0508,0.3175 0.118533,1.223433 0.06773,0.905932 0.08043,0.999065 0.0127,0.0762 0.0127,0.148167 0,0.2032 -0.173566,0.2032 -0.08043,0 -0.131234,-0.05503 -0.04657,-0.05503 -0.0889,-0.220134 -0.0381,-0.165099 -0.0635,-0.406399 -0.02117,-0.245533 -0.0508,-0.681566 -0.02963,-0.4318 -0.07197,-0.766233 -0.0381,-0.334433 -0.0762,-0.491066 -0.03387,-0.156634 -0.0635,-0.1778 -0.0254,-0.01693 -0.0762,-0.01693 -0.03387,0 -0.300566,0.04233 -0.2667,0.04233 -0.423333,0.04233 -0.09737,0 -0.2794,0.03387 -0.182033,0.02963 -0.254,0.02963 -0.118533,0 -0.198966,-0.0508 -0.08043,-0.05503 -0.08043,-0.135466 0,-0.09737 0.122767,-0.1397 0.1016,-0.03387 0.859366,-0.143934 0.677333,-0.09737 1.341965,-0.215899 0.5207,-0.0889 0.635,-0.0889 z"
         id="path3" />
      <path
         style="font-weight:bold;line-height:0.85;font-family:Purisa;-inkscape-font-specification:'Purisa Bold';text-align:center;baseline-shift:baseline;text-anchor:middle;fill:#000000;stroke:none"
         d="m 39.492261,-7.4360458 q 0,0.2961675 -0.04739,0.390941 -0.04146,0.094774 -0.195471,0.094774 -0.23101,0 -0.296167,-0.1184669 -0.03554,-0.100697 -0.03554,-0.3909411 0,-0.2724741 -0.106621,-1.0543563 -0.100697,-0.7818822 -0.100697,-1.5993045 v -0.983276 l 0.491639,-0.171777 q 0.491638,-0.154007 0.793728,-0.154007 0.195471,0 0.396865,-0.07108 0.201394,-0.07108 0.544948,-0.07108 0.527178,0 0.527178,0.189548 0,0.06516 -0.01185,0.112543 -0.0059,0.04146 -0.04146,0.077 -0.02962,0.03554 -0.07108,0.06516 -0.03554,0.02369 -0.112544,0.04739 -0.077,0.02369 -0.154007,0.04146 -0.077,0.01777 -0.213241,0.04146 -0.130313,0.02369 -0.260627,0.04739 -0.12439,0.01777 -0.325784,0.05923 -0.201394,0.03554 -0.390941,0.07108 l -0.592335,0.112543 v 0.337631 q 0,0.485715 0.04146,0.7167257 l 0.03554,0.1895472 0.337631,-0.03554 q 0.396865,-0.047387 0.787806,-0.047387 0.544948,0 0.544948,0.1658538 0,0.094774 -0.15993,0.1836238 -0.154008,0.082927 -0.385018,0.1421604 -0.225087,0.05331 -0.367248,0.082927 -0.14216,0.029617 -0.219164,0.041463 l -0.485715,0.077004 0.05331,0.8707324 q 0.01777,0.4442513 0.01777,0.5390249 z"
         id="path4" />
      <path
         style="font-weight:bold;font-size:4.23333px;line-height:0.85;font-family:Purisa;-inkscape-font-specification:'Purisa Bold';text-align:center;baseline-shift:baseline;text-anchor:middle;fill:#000000;stroke:none"
         d="m 42.09105,-9.5792621 q 0.0085,-0.1100665 0.207433,-0.334433 0.2032,-0.2243669 0.2794,-0.2243669 0.182033,0 0.770466,0.07197 0.592666,0.067733 0.706966,0.1015999 0.321733,0.097367 0.321733,0.423333 0,0.1947332 -0.1016,0.3809997 -0.1016,0.1862665 -0.224367,0.3217331 -0.122766,0.1354665 -0.131233,0.1523998 0,0.0254 -0.0635,0.0762 -0.0635,0.0508 -0.156633,0.1100665 -0.0889,0.055033 -0.2032,0.1185333 -0.110066,0.059267 -0.2032,0.1058332 -0.0889,0.046567 -0.160866,0.084667 -0.06773,0.033867 -0.07197,0.033867 0.6985,0.2158999 0.901699,0.3428998 0.173567,0.1100665 0.211667,0.1269998 0.09737,0.016933 0.237066,0.1650999 0.143934,0.1481666 0.143934,0.2285998 0,0.1608665 -0.131234,0.1608665 -0.08043,0 -0.245533,-0.080433 -0.1651,-0.080433 -0.440266,-0.2201332 -0.270933,-0.1396998 -0.524933,-0.2328331 l -0.275166,-0.1015999 0.0127,0.4148663 q 0.0085,0.1820332 0.0085,0.3005664 0,0.080433 -0.0085,0.1269999 -0.0085,0.046567 -0.0508,0.0889 -0.04233,0.046567 -0.122767,0.046567 -0.122766,0 -0.169333,-0.1481666 -0.04657,-0.1481665 -0.04657,-0.423333 0,-0.5122329 -0.1397,-0.5714995 -0.160866,-0.071967 -0.160866,-0.2031998 0,-0.1227666 0.156633,-0.1989665 l 0.1016,-0.046567 -0.02963,-0.4444997 q -0.0381,-0.5460995 -0.0762,-0.6265328 -0.0635,0.0508 -0.1397,0.0508 -0.0762,0 -0.131233,-0.0508 -0.0508,-0.0508 -0.0508,-0.1269999 z m 1.926165,0.0889 q -0.0889,-0.042333 -0.376767,-0.1015999 -0.283633,-0.0635 -0.537632,-0.0635 h -0.262467 l 0.0254,0.1650999 q 0.04233,0.3132664 0.0889,0.9905991 0.127,-0.042333 0.338666,-0.1523998 0.2159,-0.1100666 0.321733,-0.1947332 0.110067,-0.0889 0.249767,-0.3174997 0.1397,-0.2328332 0.1524,-0.3259664 z m 1.214964,2.7304977 q -0.05503,0 -0.118533,-0.0254 -0.0635,-0.0254 -0.0635,-0.080433 0,-0.080433 0.0889,-0.2074331 0.0889,-0.1312333 0.0889,-0.1735666 0,-0.1523998 0.09313,-0.2031998 0.01693,-0.00847 0.0508,-0.097367 0.0381,-0.093133 0.0889,-0.2116665 0.0508,-0.1185332 0.1016,-0.1735665 0.1143,-0.1185332 0.436033,-0.8805326 0.1397,-0.3259664 0.389466,-0.783166 0.249767,-0.4571996 0.325967,-0.5249326 0.1016,-0.03387 0.122766,-0.03387 0.06773,0 0.1397,0.04233 0.07197,0.08467 0.254,0.508 0.186266,0.4190996 0.186266,0.5376328 0.0042,0.084667 0.08043,0.3809997 0.0762,0.2920998 0.105833,0.4656663 0.02117,0.1608665 0.131233,0.5418662 0.110067,0.3809997 0.110067,0.4783663 0,0.046567 -0.02117,0.067733 -0.02117,0.021167 -0.09313,0.021167 -0.05503,0 -0.156633,-0.046567 -0.06773,-0.033867 -0.105834,-0.0889 -0.03387,-0.055033 -0.0508,-0.1142999 -0.0127,-0.059267 -0.05503,-0.2285998 -0.0381,-0.1693332 -0.08467,-0.3301997 l -0.08043,-0.2751664 -0.182033,0.021167 q -0.2667,0.033867 -0.575733,0.055033 l -0.3048,0.021167 -0.122766,0.1820331 q -0.3302,0.4825996 -0.516466,0.9270993 -0.09737,0.2285998 -0.262467,0.2285998 z m 1.769532,-1.8499651 q 0,-0.080433 -0.0762,-0.4063997 -0.07197,-0.3301997 -0.127,-0.4614329 -0.1143,0.1608665 -0.232833,0.4106329 -0.118533,0.2497665 -0.182033,0.4190997 l -0.0635,0.1693332 0.2794,-0.016933 q 0.262466,-0.016933 0.330199,-0.033867 0.07197,-0.016933 0.07197,-0.080433 z m 1.756832,2.0192983 q -0.1651,0 -0.2032,-0.385233 -0.0381,-0.3852331 -0.0381,-1.8795985 0,-0.745066 0.0127,-1.0244658 0.0127,-0.2793995 0.0508,-0.3301995 0.08043,-0.1016 0.1905,-0.1016 0.09313,0 0.156633,0.122766 0.06773,0.118534 0.160866,0.4275668 0.135467,0.4529662 0.287867,0.7789326 0.1524,0.3259664 0.224366,0.3809997 0.04657,-0.029633 0.143933,-0.1693332 0.1016,-0.1439332 0.283633,-0.4656662 0.186267,-0.3217331 0.4064,-0.7619994 0.05927,-0.1227663 0.169333,-0.2074333 0.1143,-0.08467 0.220133,-0.08467 0.0762,0 0.131234,0.0508 0.110066,0.09737 0.1397,0.3937002 0.02963,0.2920997 0.0381,1.2107323 0.0042,0.5545662 0.0254,0.8974659 0.02117,0.3428997 0.04233,0.4317996 0.0254,0.0889 0.04233,0.1523999 0.01693,0.0635 0.01693,0.1269999 0,0.1862665 -0.173566,0.1862665 -0.08467,0 -0.1651,-0.0508 -0.0762,-0.0508 -0.105833,-0.1354665 -0.02963,-0.080433 -0.05503,-0.6138328 -0.0254,-0.5376329 -0.04657,-1.1641657 -0.02117,-0.6265328 -0.04233,-0.821266 -0.02963,0.055033 -0.1397,0.2836331 -0.105834,0.2243665 -0.3683,0.6603995 -0.09737,0.1608665 -0.3048,0.3005664 -0.2032,0.1354665 -0.368299,0.1354665 -0.0635,0 -0.169334,-0.1142999 -0.1016,-0.1185332 -0.198966,-0.2793998 L 49.004076,-8.834196 v 0.8889992 q 0,0.5799662 -0.0254,0.8678326 -0.02117,0.2878665 -0.07197,0.385233 -0.0508,0.1016 -0.148166,0.1016 z m 3.035294,-2.8320977 q 0,-0.2497664 0.06773,-0.359833 0.06773,-0.1142999 0.1524,-0.1142999 0.03387,0 0.143933,-0.055033 0.1143,-0.055033 0.254,-0.1185329 0.143933,-0.06773 0.3937,-0.122767 0.254,-0.05503 0.537633,-0.05503 0.444499,0 0.444499,0.169333 0,0.1142999 -0.457199,0.1820332 -0.3683,0.055033 -0.6731,0.1523999 -0.304799,0.097367 -0.402166,0.1820332 -0.05503,0.0508 -0.05503,0.1354665 0,0.00847 0.02117,0.2158998 0.02117,0.2074332 0.04657,0.4317997 0.0254,0.2243664 0.03387,0.2539998 0.105833,-0.046567 0.529166,-0.1354666 0.427566,-0.0889 0.588433,-0.0889 0.0889,0 0.131233,0.046567 0.04233,0.046567 0.04233,0.1015999 0,0.067733 -0.0508,0.1100666 -0.09737,0.093133 -0.622299,0.2116665 -0.524933,0.1142999 -0.575733,0.1439332 -0.0254,0.016933 -0.0254,0.055033 0,0.3090331 0.0085,0.5079996 l 0.0127,0.3005664 h 0.177799 q 0.198967,0 0.508,-0.0762 0.309033,-0.0762 0.512233,-0.1777998 0.143933,-0.080433 0.198966,-0.080433 0.07197,0 0.127,0.067733 0.05927,0.067733 0.05927,0.1312332 0,0.1312332 -0.258233,0.2666998 -0.254,0.1354665 -0.605366,0.2158998 -0.347133,0.080433 -0.630766,0.080433 -0.334434,0 -0.4064,-0.1227666 -0.04657,-0.080433 -0.07197,-0.359833 -0.0254,-0.2793998 -0.05927,-0.8043327 -0.02963,-0.5291662 -0.06773,-0.9101659 -0.02963,-0.3555997 -0.02963,-0.3809997 z m 2.645826,-0.347133 q 0,-0.1058332 0.02117,-0.1439332 0.0254,-0.042333 0.1016,-0.042333 0.05503,0 0.1016,0.0254 0.110067,0.093133 0.2286,0.5291662 0.122766,0.436033 0.2413,0.9863658 0.118533,0.5460996 0.182033,0.7323661 0.05503,-0.1185333 0.245533,-0.6434661 0.194733,-0.5291663 0.249766,-0.6222995 0.0889,-0.1058333 0.249767,-0.1058333 0.237066,0 0.499533,0.3090331 0.2667,0.3090331 0.427566,0.745066 0.04657,0.1100666 0.09313,0.1820332 0.04657,-0.0889 0.09313,-0.2666997 0.04657,-0.1820332 0.04657,-0.3047998 0.0042,-0.1396999 0.1651,-0.9313325 0.1651,-0.7916331 0.224367,-0.9143991 0.03387,-0.01693 0.05927,-0.01693 0.131233,0 0.194733,0.04657 0.0635,0.04657 0.0635,0.1651 0,0.1396999 -0.1016,0.6688661 l -0.220133,1.0921991 q -0.0635,0.3090331 -0.1143,0.5249329 -0.04657,0.2158998 -0.0635,0.2751664 -0.01693,0.059267 -0.0254,0.1058333 -0.0085,0.046567 -0.0085,0.1227665 0,0.097367 -0.05927,0.1566332 -0.05503,0.055033 -0.148166,0.055033 -0.1143,-0.00847 -0.1905,-0.084667 -0.0762,-0.080433 -0.122767,-0.1777998 -0.04233,-0.1016 -0.0635,-0.1185333 -0.04657,-0.00847 -0.05503,-0.0127 -0.04233,-0.042333 -0.07197,-0.1650998 -0.04233,-0.1947332 -0.211666,-0.5079996 -0.169333,-0.3132664 -0.270933,-0.4063997 l -0.07197,-0.0635 -0.09737,0.2412998 q -0.09737,0.2328331 -0.182034,0.4487329 -0.08043,0.2116665 -0.135466,0.3555998 -0.0508,0.1439332 -0.09737,0.2709331 -0.04233,0.1269998 -0.06773,0.2031998 -0.0254,0.0762 -0.0508,0.1439332 -0.0254,0.0635 -0.04233,0.093133 -0.0127,0.033867 -0.0381,0.055033 -0.02117,0.0254 -0.04233,0.033867 -0.02117,0.00847 -0.05927,0.0127 -0.01693,0.00423 -0.05927,0.00423 -0.1016,0 -0.160866,-0.046567 -0.05927,-0.067733 -0.1397,-0.448733 -0.08043,-0.3809997 -0.1778,-0.8889992 -0.09313,-0.5079996 -0.1524,-0.7281328 -0.0635,-0.2243664 -0.0635,-0.347133 0,-0.067733 -0.02117,-0.1015999 -0.01693,-0.0381 -0.04233,-0.059267 -0.02117,-0.021167 -0.04233,-0.1312333 -0.01693,-0.1100665 -0.01693,-0.3047997 z m 5.926655,1.6933319 q 0.0254,-0.1904998 0.1143,-0.5291662 0.0889,-0.3428997 0.0889,-0.423333 0,-0.1058332 -0.1143,-0.3174997 -0.110066,-0.2158998 -0.1651,-0.2709331 -0.04233,-0.0254 -0.139699,-0.0254 -0.1905,0 -0.4953,0.093133 -0.643466,0.1947332 -0.795866,1.0286992 -0.04233,0.2624664 -0.04233,0.334433 0,0.1396999 0.1016,0.4063997 0.224366,0.6011328 0.609599,0.6011328 0.09737,0 0.2286,-0.046567 0.135466,-0.0508 0.3556,-0.3513664 0.224366,-0.3047997 0.253999,-0.4995329 z m -0.296333,1.1260657 q -0.01693,0 -0.0381,0.029633 -0.01693,0.029633 -0.03387,0.042333 -0.0635,0.042333 -0.245533,0.067733 -0.182034,0.029633 -0.351367,0.029633 -0.127,0 -0.211666,-0.033867 -0.08043,-0.029633 -0.207433,-0.1185333 -0.245534,-0.1862665 -0.423333,-0.5757328 -0.1778,-0.3894663 -0.1778,-0.7365994 0,-0.397933 0.182033,-0.795866 0.182033,-0.397933 0.474133,-0.5926661 0.270933,-0.1777999 0.406399,-0.1862666 0.03387,-0.00847 0.156634,-0.1185332 0.122766,-0.1100669 0.220133,-0.1100669 0.05927,0 0.1143,-0.05503 0.05927,-0.05927 0.1905,-0.05927 0.359833,0 0.571499,0.3302002 0.2159,0.3259663 0.2159,0.8762992 0,0.3513664 -0.0889,0.7281327 -0.0889,0.3725331 -0.220133,0.6476995 -0.127,0.2751664 -0.275167,0.4529663 -0.148166,0.1777998 -0.258233,0.1777998 z m 1.286926,-2.6288978 q 0.0085,-0.1100665 0.207434,-0.334433 0.203199,-0.2243669 0.279399,-0.2243669 0.182034,0 0.770466,0.07197 0.592667,0.067733 0.706966,0.1015999 0.321734,0.097367 0.321734,0.423333 0,0.1947332 -0.1016,0.3809997 -0.1016,0.1862665 -0.224367,0.3217331 -0.122766,0.1354665 -0.131233,0.1523998 0,0.0254 -0.0635,0.0762 -0.0635,0.0508 -0.156633,0.1100665 -0.0889,0.055033 -0.2032,0.1185333 -0.110067,0.059267 -0.2032,0.1058332 -0.0889,0.046567 -0.160866,0.084667 -0.06773,0.033867 -0.07197,0.033867 0.698499,0.2158999 0.901699,0.3428998 0.173567,0.1100665 0.211667,0.1269998 0.09737,0.016933 0.237066,0.1650999 0.143933,0.1481666 0.143933,0.2285998 0,0.1608665 -0.131233,0.1608665 -0.08043,0 -0.245533,-0.080433 -0.1651,-0.080433 -0.440266,-0.2201332 -0.270933,-0.1396998 -0.524933,-0.2328331 l -0.275167,-0.1015999 0.0127,0.4148663 q 0.0085,0.1820332 0.0085,0.3005664 0,0.080433 -0.0085,0.1269999 -0.0085,0.046567 -0.0508,0.0889 -0.04233,0.046567 -0.122766,0.046567 -0.122767,0 -0.169333,-0.1481666 -0.04657,-0.1481665 -0.04657,-0.423333 0,-0.5122329 -0.1397,-0.5714995 -0.160866,-0.071967 -0.160866,-0.2031998 0,-0.1227666 0.156633,-0.1989665 l 0.1016,-0.046567 -0.02963,-0.4444997 q -0.0381,-0.5460995 -0.0762,-0.6265328 -0.0635,0.0508 -0.1397,0.0508 -0.0762,0 -0.131234,-0.0508 -0.0508,-0.0508 -0.0508,-0.1269999 z m 1.926165,0.0889 q -0.0889,-0.042333 -0.376766,-0.1015999 -0.283633,-0.0635 -0.537633,-0.0635 h -0.262466 l 0.0254,0.1650999 q 0.04233,0.3132664 0.0889,0.9905991 0.127,-0.042333 0.338666,-0.1523998 0.2159,-0.1100666 0.321733,-0.1947332 0.110067,-0.0889 0.249767,-0.3174997 0.1397,-0.2328332 0.152399,-0.3259664 z m 1.756832,2.5569311 q 0,0.1650999 -0.0381,0.2412998 -0.03387,0.080433 -0.131233,0.080433 -0.182033,0 -0.245533,-0.2074331 -0.04657,-0.1439333 -0.0889,-0.6942661 -0.0127,-0.1523999 -0.02117,-0.2370665 -0.0889,-1.1133657 -0.0889,-2.2267315 v -0.097367 q 0,-0.177799 0.02963,-0.253999 0.02963,-0.08043 0.127,-0.08043 0.122766,0 0.198966,0.1397 0.0508,0.09313 0.06773,0.5968997 0.01693,0.4995329 0.04233,0.6307661 l 0.02117,0.1227666 0.3556,-0.3471331 q 0.118533,-0.1142999 0.211667,-0.1989665 0.09313,-0.084667 0.143933,-0.1269998 0.0508,-0.046567 0.09313,-0.071967 0.04657,-0.029633 0.05927,-0.033867 0.0127,-0.00847 0.03387,-0.0127 l 0.02117,-0.00423 q 0.0254,-0.00847 0.143933,-0.1058333 0.118533,-0.1015999 0.1905,-0.1015999 0.02963,0 0.131233,-0.0762 0.1016,-0.080433 0.2032,-0.080433 0.110067,0 0.1778,0.06773 0.06773,0.0635 0.06773,0.1481668 0,0.1354666 -0.237066,0.1989665 -0.194733,0.059267 -0.783166,0.5884329 -0.588433,0.5291662 -0.6604,0.6857994 0.09313,0.055033 0.7239,0.3640664 0.245533,0.1185332 0.444499,0.2243664 0.2032,0.1058333 0.300567,0.1608666 0.1016,0.055033 0.173566,0.097367 0.0762,0.042333 0.105834,0.055033 0.02963,0.0127 0.0508,0.0127 0.114299,0.00847 0.292099,0.1693332 0.1778,0.1608666 0.1778,0.2412998 0,0.1439332 -0.09313,0.1439332 -0.09737,0 -0.410633,-0.1100665 -0.309033,-0.1142999 -0.440266,-0.1862665 -0.287867,-0.1608666 -0.791633,-0.4021664 -0.499533,-0.2455331 -0.639233,-0.2963331 0,0.00423 -0.0042,0.021167 0,0.016933 0,0.029633 0,0.0254 0.04233,0.385233 0.04233,0.359833 0.04233,0.5460995 z"
         id="path5" />
    </g>
  </g>
</svg>
