<?xml version="1.0" encoding="UTF-8" standalone="no"?>
<!-- Created with Inkscape (http://www.inkscape.org/) -->

<svg
   width="313.02536"
   height="89.489517"
   viewBox="0 0 82.821294 23.677437"
   version="1.1"
   id="svg1"
   inkscape:version="1.3.1 (9b9bdc1480, 2023-11-25, custom)"
   sodipodi:docname="full-gis-bim-application.svg"
   xmlns:inkscape="http://www.inkscape.org/namespaces/inkscape"
   xmlns:sodipodi="http://sodipodi.sourceforge.net/DTD/sodipodi-0.dtd"
   xmlns="http://www.w3.org/2000/svg"
   xmlns:svg="http://www.w3.org/2000/svg">
  <sodipodi:namedview
     id="namedview1"
     pagecolor="#ffffff"
     bordercolor="#000000"
     borderopacity="0.25"
     inkscape:showpageshadow="2"
     inkscape:pageopacity="0.0"
     inkscape:pagecheckerboard="0"
     inkscape:deskcolor="#d1d1d1"
     inkscape:document-units="mm"
     inkscape:zoom="1.6195707"
     inkscape:cx="144.79146"
     inkscape:cy="160.53637"
     inkscape:window-width="1920"
     inkscape:window-height="1082"
     inkscape:window-x="0"
     inkscape:window-y="27"
     inkscape:window-maximized="1"
     inkscape:current-layer="text1"
     showgrid="false" />
  <defs
     id="defs1">
    <marker
       style="overflow:visible"
       id="RoundedArrow"
       refX="0"
       refY="0"
       orient="auto-start-reverse"
       inkscape:stockid="Rounded arrow"
       markerWidth="1"
       markerHeight="1"
       viewBox="0 0 1 1"
       inkscape:isstock="true"
       inkscape:collect="always"
       preserveAspectRatio="xMidYMid">
      <path
         transform="scale(0.7)"
         d="m -0.21114562,-4.1055728 6.42229122,3.21114561 a 1,1 90 0 1 0,1.78885438 L -0.21114562,4.1055728 A 1.236068,1.236068 31.717474 0 1 -2,3 v -6 a 1.236068,1.236068 148.28253 0 1 1.78885438,-1.1055728 z"
         style="fill:context-stroke;fill-rule:evenodd;stroke:none"
         id="path8" />
    </marker>
  </defs>
  <g
     inkscape:label="Layer 1"
     inkscape:groupmode="layer"
     id="layer1"
     transform="translate(22.623331,1.4804256)">
    <path
       style="fill:none;stroke:#000000;stroke-width:0.606;stroke-dasharray:none;stroke-opacity:1;marker-end:url(#RoundedArrow)"
       d="M -1.3252335,16.670277 C 10.118197,25.4497 20.962696,19.13718 28.737438,10.794678 39.010765,-0.2288723 52.463952,10.327596 58.457678,19.712169"
       id="path2"
       inkscape:label="path2"
       sodipodi:nodetypes="csc" />
    <g
       id="text1"
       style="font-size:5.92335px;line-height:0.85;letter-spacing:0px;fill:none;stroke:#000000;stroke-width:0.740417"
       transform="matrix(0.98482911,-0.17364041,0.17365594,0.9847864,0,0)"
       aria-label="FULL GIS/BIM&#10;APPLICATION">
      <path
         style="font-weight:bold;font-family:Purisa;-inkscape-font-specification:'Purisa Bold';text-align:center;baseline-shift:baseline;text-anchor:middle;fill:#000000;stroke:none"
         d="m -22.633538,6.6442184 q 0,0.2961675 -0.04739,0.390941 -0.04146,0.094774 -0.19547,0.094774 -0.231011,0 -0.296168,-0.1184669 -0.03554,-0.100697 -0.03554,-0.3909411 0,-0.2724741 -0.10662,-1.0543563 Q -23.41542,4.7842865 -23.41542,3.9668642 V 2.9835881 l 0.491638,-0.1717771 q 0.491638,-0.1540071 0.793729,-0.1540071 0.19547,0 0.396864,-0.07108 0.201394,-0.07108 0.544948,-0.07108 0.527178,0 0.527178,0.1895472 0,0.065157 -0.01185,0.1125437 -0.0059,0.041463 -0.04146,0.077004 -0.02962,0.03554 -0.07108,0.065157 -0.03554,0.023693 -0.112544,0.047387 -0.077,0.023693 -0.154007,0.041463 -0.077,0.01777 -0.21324,0.041463 -0.130314,0.023693 -0.260628,0.047387 -0.12439,0.01777 -0.325784,0.059234 -0.201394,0.03554 -0.390941,0.07108 l -0.592335,0.1125437 v 0.3376309 q 0,0.4857147 0.04146,0.7167254 l 0.03554,0.1895472 0.33763,-0.03554 q 0.396865,-0.047387 0.787806,-0.047387 0.544948,0 0.544948,0.1658538 0,0.094774 -0.15993,0.1836238 -0.154007,0.082927 -0.385018,0.1421604 -0.225087,0.05331 -0.367248,0.082927 -0.14216,0.029617 -0.219164,0.041463 l -0.485714,0.077004 0.05331,0.8707324 q 0.01777,0.4442513 0.01777,0.5390249 z"
         id="path1" />
      <path
         style="font-weight:bold;font-size:4.23333px;font-family:Purisa;-inkscape-font-specification:'Purisa Bold';text-align:center;baseline-shift:baseline;text-anchor:middle;fill:#000000;stroke:none"
         d="m -18.032384,4.0184025 q 0,-0.0889 0.07197,-0.1269998 0.0762,-0.042333 0.131233,-0.042333 0.110066,0 0.182033,0.1312332 0.0762,0.1269999 0.122766,0.2963331 0.04657,0.1650998 0.07197,0.1947331 0.05503,0.071967 0.05503,0.436033 0,0.3894663 -0.0635,0.7281327 -0.0635,0.3344331 -0.165099,0.5672662 -0.1016,0.2328331 -0.237067,0.4190997 -0.131233,0.1862665 -0.2667,0.3005664 -0.135466,0.1100665 -0.275166,0.1862665 -0.1397,0.071967 -0.245533,0.097367 -0.1016,0.029633 -0.1778,0.029633 -0.143933,0 -0.334433,-0.067733 -0.1905,-0.071967 -0.300567,-0.1735665 -0.203199,-0.1947332 -0.309033,-1.1429991 -0.1016,-0.9524992 -0.1016,-1.5239987 0,-0.1904998 0.0254,-0.2666998 0.02963,-0.080433 0.127,-0.1312332 0.04233,-0.016933 0.0635,-0.016933 0.131234,0 0.169333,0.3386664 0.0042,0.059267 0.01693,0.2116665 0.05503,0.7027327 0.1651,1.4350988 0.110066,0.7281327 0.182033,0.8254993 l 0.0085,0.0127 q 0.0085,0.0127 0.0127,0.0254 0.0085,0.00847 0.0254,0.021167 0.01693,0.0127 0.03387,0.0254 0.02117,0.00847 0.0508,0.016933 0.03387,0.00423 0.07197,0.00423 0.148166,0 0.372533,-0.1354665 0.258233,-0.1523999 0.406399,-0.3809997 0.148167,-0.2328332 0.254,-0.6349995 0.09313,-0.3428997 0.09313,-0.6138328 0,-0.2158998 -0.05927,-0.4402663 -0.05927,-0.2243665 -0.118533,-0.3809997 -0.05927,-0.1608665 -0.05927,-0.2243665 z m 1.253057,0 q 0,-0.1650998 0.118534,-0.1650998 0.05503,0 0.1016,0.046567 0.0508,0.046567 0.07197,0.0889 0.02117,0.042333 0.02963,0.067733 0.05503,0.1777999 0.118533,1.4012322 0.0635,1.2191989 0.127,1.3250322 0.0127,0.0254 0.0889,0.0254 0.131233,0 0.546099,-0.0889 0.414866,-0.0889 0.778933,-0.1735665 0.3683,-0.0889 0.385233,-0.0889 0.07197,0 0.143933,0.059267 0.07197,0.055033 0.07197,0.1354666 0,0.0635 -0.09737,0.1396998 -0.143933,0.1143 -0.842433,0.2793998 -0.698499,0.1608665 -1.121832,0.1608665 -0.296333,0 -0.359833,-0.2201331 -0.05927,-0.2243665 -0.110067,-1.4054655 0,-0.016933 0,-0.029633 0,-0.0127 -0.0042,-0.029633 0,-0.016933 0,-0.029633 -0.04657,-1.0837324 -0.04657,-1.4985988 z m 3.217325,0 q 0,-0.1650998 0.118533,-0.1650998 0.05503,0 0.1016,0.046567 0.0508,0.046567 0.07197,0.0889 0.02117,0.042333 0.02963,0.067733 0.05503,0.1777999 0.118533,1.4012322 0.0635,1.2191989 0.127,1.3250322 0.0127,0.0254 0.0889,0.0254 0.131233,0 0.546099,-0.0889 0.414867,-0.0889 0.778933,-0.1735665 0.3683,-0.0889 0.385233,-0.0889 0.07197,0 0.143933,0.059267 0.07197,0.055033 0.07197,0.1354666 0,0.0635 -0.09737,0.1396998 -0.143933,0.1143 -0.842432,0.2793998 -0.6985,0.1608665 -1.121833,0.1608665 -0.296333,0 -0.359833,-0.2201331 -0.05927,-0.2243665 -0.110066,-1.4054655 0,-0.016933 0,-0.029633 0,-0.0127 -0.0042,-0.029633 0,-0.016933 0,-0.029633 -0.04657,-1.0837324 -0.04657,-1.4985988 z"
         id="path3" />
      <path
         style="font-weight:bold;font-family:Purisa;-inkscape-font-specification:'Purisa Bold';text-align:center;baseline-shift:baseline;text-anchor:middle;fill:#000000;stroke:none"
         d="m -4.0974709,5.1041474 q -0.011847,0 -0.1125436,0.065157 -0.100697,0.059234 -0.3020909,0.059234 -0.1006969,0 -0.2073172,-0.01777 -0.1066203,-0.01777 -0.2191639,-0.05331 -0.1066203,-0.041463 -0.1777005,-0.118467 -0.07108,-0.082927 -0.07108,-0.1895471 0.011847,-0.1362371 0.1006969,-0.2013939 0.08885,-0.065157 0.2132406,-0.100697 0.1243903,-0.03554 0.1599304,-0.07108 0.082927,-0.082927 0.2902442,-0.082927 0.236934,0 0.5864116,0.07108 0.3494777,0.065157 0.473868,0.1658538 0.2073173,0.1717772 0.2961675,0.7700355 0.08885,0.592335 0.08885,1.2794436 0,0.2487807 -0.03554,0.3790943 -0.03554,0.1243904 -0.1658538,0.1599305 -0.05331,0.01777 -0.082927,0.01777 -0.1125437,0 -0.1836239,-0.05331 -0.065157,-0.059233 -0.1006969,-0.1954705 -0.029617,-0.1421604 -0.03554,-0.2665508 -0.00592,-0.1303137 -0.00592,-0.373171 V 5.9511864 l -0.047387,0.077004 q -0.3672477,0.5567949 -0.8411157,0.8766558 -0.4738679,0.3198608 -0.9299659,0.3198608 -0.2487807,0 -0.4975614,-0.1243903 Q -6.0817931,7.0055427 -6.16472,6.8811524 -6.2476469,6.756762 -6.3305738,6.4546712 q -0.08885,-0.3139376 -0.08885,-0.5864117 0,-0.1895472 0.03554,-0.4797913 0.059233,-0.4857147 0.1717771,-0.7641121 0.1125437,-0.2843208 0.456098,-0.7581888 0.2428573,-0.3317076 0.5271781,-0.5686416 0.2843208,-0.2428574 0.4857147,-0.337631 0.2073172,-0.094774 0.373171,-0.1717771 0.1658538,-0.077004 0.2013939,-0.1243903 0.1066203,-0.1421604 0.3790944,-0.1421604 0.2487807,0 0.473868,0.1243903 0.2310107,0.118467 0.2310107,0.2783974 0,0.118467 -0.08885,0.2783975 -0.082927,0.1599304 -0.2073172,0.1599304 -0.08885,0 -0.1303137,-0.07108 -0.041463,-0.07108 -0.059233,-0.136237 -0.01777,-0.07108 -0.047387,-0.07108 -0.1125437,0 -0.3080142,0.065157 -0.1895472,0.065157 -0.4679447,0.219164 -0.2724741,0.1480837 -0.5923349,0.4857147 -0.3139376,0.3317076 -0.574565,0.7937289 -0.1895472,0.3317075 -0.2310106,0.4975613 -0.03554,0.1658538 -0.03554,0.5567949 0,0.5627183 0.082927,0.7463421 0.08885,0.1777005 0.3435543,0.1777005 0.6041817,0 0.983276,-0.4560979 0.2073173,-0.2487807 0.337631,-0.5094081 0.136237,-0.2665508 0.136237,-0.3968645 0,-0.059233 -0.05331,-0.1066203 -0.047387,-0.05331 -0.100697,-0.05331 z m 4.35365642,1.2320568 q 0.0947736,-0.05331 0.19547054,-0.05331 0.12439035,0 0.2132406,0.07108 0.0947736,0.07108 0.0947736,0.1836239 0,0.1717771 -0.25470405,0.3020908 -0.24878069,0.1303137 -0.88257913,0.3139375 -0.39094109,0.1421604 -0.66933848,0.1421604 -0.03554,0 -0.1243904,-0.01777 -0.08885,-0.011847 -0.2191639,-0.047387 -0.1303137,-0.029617 -0.2250873,-0.1066203 -0.08885,-0.077004 -0.08885,-0.1836238 0,-0.1362371 0.07108,-0.1836239 0.07108,-0.047387 0.236934,-0.047387 0.2487807,0 0.59233499,-0.1243903 l 0.3080142,-0.1125437 -0.0533101,-1.0128928 q -0.0533101,-1.066203 -0.0533101,-1.6940781 V 3.2501389 l -0.1066203,0.01777 q -0.47979129,0.082927 -0.69895529,0.082927 -0.4264812,0 -0.4264812,-0.1895472 0,-0.077004 0.07108,-0.136237 0.077004,-0.065157 0.2250873,-0.118467 0.1540071,-0.05331 0.3020909,-0.094774 0.1480837,-0.041463 0.373171,-0.1006969 0.22508729,-0.059233 0.37909439,-0.1066203 0.0829269,-0.03554 0.56864158,-0.03554 0.49756139,0 0.59825834,0.077004 0.11254365,0.094774 0.11254365,0.2310106 0,0.1421604 -0.1303137,0.2073173 -0.12439035,0.065157 -0.42648119,0.094774 l -0.11254365,0.011847 0.0118467,0.9299659 q 0.0296167,1.8717786 0.118467,2.2153329 z M 2.4537457,5.7616392 q 0.2310106,0 0.2310106,0.2487807 0,0.118467 -0.1006969,0.2250873 -0.094774,0.100697 -0.094774,0.1243904 0,0.041463 0.041463,0.1243903 0.047387,0.100697 0.1243904,0.1243904 0.082927,0.01777 0.4560979,0.01777 0.3198609,0 0.473868,-0.029617 0.1540071,-0.03554 0.3020908,-0.1303137 0.2310107,-0.1540071 0.2843208,-0.236934 0.05331,-0.082927 0.05331,-0.3020909 0,-0.1540071 -0.059234,-0.2073172 -0.05331,-0.05331 -0.3435543,-0.1777005 -0.3731711,-0.1658538 -0.5390249,-0.1836239 -0.3139375,0 -0.8885024,-0.4620212 -0.5686416,-0.4679447 -0.5686416,-0.7226487 0,-0.3494777 0.3494776,-0.7700355 0.3494777,-0.4264812 0.7818822,-0.6160284 0.2428573,-0.1066203 0.8707324,-0.1066203 0.2783975,0 0.4205579,0.041463 0.1421604,0.041463 0.2961675,0.1658537 0.2843208,0.236934 0.2843208,0.4205579 0,0.2191639 -0.1243904,0.2191639 -0.065157,0 -0.1480837,-0.059233 Q 4.473608,3.4100693 4.3906811,3.3449125 4.3077542,3.2738323 4.1537471,3.2145988 3.99974,3.1553653 3.8101928,3.1553653 q -0.5034848,0 -0.9299659,0.3376309 -0.4205579,0.337631 -0.4205579,0.7285721 0,0.1303137 0.3494777,0.3139375 0.3554009,0.1836239 0.9181192,0.3494777 1.0543563,0.3139375 1.0543563,1.0128928 0,0.1540071 -0.05331,0.3257842 Q 4.5802283,6.7152986 4.2189039,6.9048458 3.8635029,7.0943929 2.9631538,7.1477031 L 2.323432,7.1891665 2.1398081,6.8100722 Q 2.0094944,6.5553681 2.0094944,6.2888174 q 0,-0.236934 0.118467,-0.3790944 0.1243904,-0.1480838 0.3257843,-0.1480838 z m 3.6783916,2.4463435 q -0.2428574,0 -0.2428574,-0.2250873 0,-0.1303137 0.08885,-0.3317076 Q 6.0669804,7.4557173 6.280221,7.0529295 6.499385,6.6442184 6.6652388,6.2710473 L 8.2053097,3.0072815 Q 8.3000833,2.8058877 8.3652402,2.5156435 8.4363204,2.2253994 8.5133239,2.1069324 8.5903275,1.982542 8.7739513,1.982542 q 0.1243904,0 0.219164,0.082927 0.1006969,0.082927 0.1006969,0.219164 0,0.082927 -0.05331,0.2013939 Q 8.9931153,2.5985704 8.886495,2.8236577 8.785798,3.0428216 8.7028711,3.2975257 8.5784808,3.64108 7.9920691,4.7961332 7.4115809,5.9452631 7.3878875,6.04596 7.3641941,6.1762737 7.0798733,6.7271453 L 6.5704652,7.7459614 Q 6.4401515,8.0065888 6.3453779,8.1072858 6.2565276,8.2079827 6.1321373,8.2079827 Z M 12.659663,6.3480509 q 0.136237,-0.1362371 0.195471,-0.219164 0.06516,-0.082927 0.112544,-0.2428573 0.04739,-0.1599305 0.04739,-0.3909411 0,-0.6693385 -0.515331,-0.6693385 -0.154007,0 -0.313938,0.041463 -0.15993,0.041463 -0.385017,0.1303137 -0.219164,0.082927 -0.260628,0.094774 -0.05331,0.01777 -0.05331,0.1895472 0,0.1243903 0.01777,0.4975614 0.01185,0.236934 0.01777,0.355401 0.01185,0.118467 0.04146,0.2310106 0.02962,0.1125437 0.04739,0.1540071 0.02369,0.03554 0.09477,0.07108 0.07108,0.029617 0.130314,0.03554 0.06516,0 0.201394,0.00592 0.02962,0 0.077,0.00592 0.05331,0 0.077,0 0.136237,0 0.201394,-0.041463 0.07108,-0.041463 0.26655,-0.2487807 z m 0.05923,-3.2578425 q 0,-0.029617 -0.02962,-0.059233 -0.02369,-0.029617 -0.136237,-0.059233 -0.10662,-0.03554 -0.278397,-0.03554 -0.248781,0 -0.550872,0.041463 -0.302091,0.041463 -0.379094,0.077004 -0.04739,0.01777 -0.04739,0.1540071 v 0.118467 q 0,0.2961675 0.05923,0.7167254 0.05923,0.4146345 0.09477,0.5094081 0.01777,0.047387 0.04739,0.047387 0.112543,-0.01777 0.503485,-0.4264812 0.396864,-0.4087112 0.562718,-0.7344954 0.154007,-0.3139376 0.154007,-0.3494777 z m -2.150176,0.219164 q -0.373171,0 -0.373171,-0.2013939 0,-0.2487807 0.995123,-0.4857147 0.408711,-0.094774 1.196516,-0.094774 0.148084,0 0.225088,0.00592 0.08293,0 0.15993,0.03554 0.08293,0.029617 0.10662,0.047387 0.02962,0.011847 0.148084,0.082927 0.077,0.047387 0.118467,0.1540071 0.04739,0.1006969 0.04739,0.1658537 -0.0059,0.2013939 -0.08885,0.4205579 -0.08293,0.2191639 -0.171778,0.3613243 -0.08293,0.1362371 -0.201393,0.3020909 -0.118467,0.1658538 -0.136237,0.1895472 0.154007,0.00592 0.402787,0.1599304 0.254704,0.1480838 0.331708,0.2724741 0.154007,0.2428573 0.154007,0.6989553 0,0.710802 -0.432405,1.20244 -0.426481,0.491638 -0.841115,0.491638 -0.077,0 -0.183624,-0.03554 -0.10662,-0.03554 -0.15993,-0.03554 -0.06516,0 -0.225088,0.05331 -0.154007,0.047387 -0.236934,0.047387 -0.100697,0 -0.171777,-0.05331 -0.07108,-0.05331 -0.118467,-0.1717771 -0.04146,-0.118467 -0.06516,-0.2606274 -0.02369,-0.1421604 -0.04146,-0.3613243 -0.01777,-0.219164 -0.03554,-0.4324046 -0.01185,-0.2191639 -0.04146,-0.5271781 -0.02369,-0.3080142 -0.06516,-0.5864116 -0.04739,-0.355401 -0.100697,-0.9951228 l -0.03554,-0.4501746 z m 6.118813,3.0268318 q 0.09477,-0.05331 0.195471,-0.05331 0.12439,0 0.21324,0.07108 0.09477,0.07108 0.09477,0.1836239 0,0.1717771 -0.254704,0.3020908 -0.248781,0.1303137 -0.882579,0.3139375 -0.390941,0.1421604 -0.669339,0.1421604 -0.03554,0 -0.12439,-0.01777 -0.08885,-0.011847 -0.219164,-0.047387 -0.130314,-0.029617 -0.225087,-0.1066203 -0.08885,-0.077004 -0.08885,-0.1836238 0,-0.1362371 0.07108,-0.1836239 0.07108,-0.047387 0.236934,-0.047387 0.24878,0 0.592335,-0.1243903 l 0.308014,-0.1125437 -0.05331,-1.0128928 q -0.05331,-1.066203 -0.05331,-1.6940781 V 3.2501389 l -0.106621,0.01777 q -0.479791,0.082927 -0.698955,0.082927 -0.426481,0 -0.426481,-0.1895472 0,-0.077004 0.07108,-0.136237 0.077,-0.065157 0.225087,-0.118467 0.154007,-0.05331 0.302091,-0.094774 0.148084,-0.041463 0.373171,-0.1006969 0.225087,-0.059233 0.379095,-0.1066203 0.08293,-0.03554 0.568641,-0.03554 0.497562,0 0.598259,0.077004 0.112543,0.094774 0.112543,0.2310106 0,0.1421604 -0.130314,0.2073173 -0.12439,0.065157 -0.426481,0.094774 l -0.112543,0.011847 0.01185,0.9299659 q 0.02962,1.8717786 0.118467,2.2153329 z m 1.96655,1.2735202 q -0.231011,0 -0.284321,-0.5390249 -0.05331,-0.5390248 -0.05331,-2.6299673 0,-1.0425096 0.01777,-1.4334507 0.01777,-0.390941 0.07108,-0.4620212 0.112544,-0.1421604 0.266551,-0.1421604 0.130314,0 0.219164,0.1717771 0.09477,0.1658538 0.225087,0.5982583 0.189547,0.6337985 0.402788,1.0898964 0.21324,0.456098 0.313937,0.5331015 0.06516,-0.041463 0.201394,-0.236934 0.142161,-0.2013939 0.396865,-0.6515685 0.260627,-0.4501746 0.568641,-1.0662029 0.08293,-0.1717772 0.236934,-0.2902442 0.159931,-0.118467 0.308015,-0.118467 0.10662,0 0.183623,0.07108 0.154007,0.1362371 0.195471,0.5508715 0.04146,0.4087112 0.05331,1.6940781 0.0059,0.7759588 0.03554,1.2557502 0.02962,0.4797913 0.05923,0.6041817 0.03554,0.1243903 0.05923,0.2132406 0.02369,0.08885 0.02369,0.1777005 0,0.2606273 -0.242858,0.2606273 -0.118467,0 -0.23101,-0.07108 -0.106621,-0.07108 -0.148084,-0.1895471 -0.04146,-0.1125437 -0.077,-0.8588858 -0.03554,-0.7522654 -0.06516,-1.6289212 -0.02962,-0.8766558 -0.05923,-1.1491299 -0.04146,0.077004 -0.195471,0.3968645 -0.148083,0.3139375 -0.515331,0.9240426 -0.136237,0.2250873 -0.426481,0.4205578 -0.284321,0.1895472 -0.515332,0.1895472 -0.08885,0 -0.236934,-0.1599305 -0.14216,-0.1658538 -0.278397,-0.390941 L 18.997638,4.470349 v 1.2439034 q 0,0.811499 -0.03554,1.2142868 -0.02962,0.4027877 -0.100697,0.5390248 -0.07108,0.1421604 -0.207317,0.1421604 z"
         id="path4" />
      <path
         style="font-weight:bold;font-size:4.23333px;font-family:Purisa;-inkscape-font-specification:'Purisa Bold';text-align:center;baseline-shift:baseline;text-anchor:middle;fill:#000000;stroke:none"
         d="m -18.08125,12.780546 q -0.05503,0 -0.118534,-0.0254 -0.0635,-0.0254 -0.0635,-0.08043 0,-0.08043 0.0889,-0.207433 0.0889,-0.131234 0.0889,-0.173567 0,-0.1524 0.09313,-0.2032 0.01693,-0.0085 0.0508,-0.09737 0.0381,-0.09313 0.0889,-0.211667 0.0508,-0.118533 0.1016,-0.173566 0.1143,-0.118534 0.436033,-0.880533 0.1397,-0.325966 0.389467,-0.783166 0.249766,-0.4571996 0.325966,-0.5249329 0.1016,-0.033867 0.122767,-0.033867 0.06773,0 0.139699,0.042333 0.07197,0.084667 0.254,0.5079996 0.186267,0.4190996 0.186267,0.5376326 0.0042,0.08467 0.08043,0.381 0.0762,0.2921 0.105833,0.465666 0.02117,0.160867 0.131234,0.541866 0.110066,0.381 0.110066,0.478367 0,0.04657 -0.02117,0.06773 -0.02117,0.02117 -0.09313,0.02117 -0.05503,0 -0.156633,-0.04657 -0.06773,-0.03387 -0.105833,-0.0889 -0.03387,-0.05503 -0.0508,-0.1143 -0.0127,-0.05927 -0.05503,-0.2286 -0.0381,-0.169333 -0.08467,-0.330199 l -0.08043,-0.275167 -0.182034,0.02117 q -0.266699,0.03387 -0.575732,0.05503 l -0.3048,0.02117 -0.122767,0.182033 q -0.330199,0.4826 -0.516466,0.927099 -0.09737,0.2286 -0.262466,0.2286 z m 1.769531,-1.849965 q 0,-0.08043 -0.0762,-0.4064 -0.07197,-0.3302 -0.127,-0.461433 -0.1143,0.160867 -0.232834,0.410633 -0.118533,0.249767 -0.182033,0.4191 l -0.0635,0.169333 0.2794,-0.01693 q 0.262467,-0.01693 0.3302,-0.03387 0.07197,-0.01693 0.07197,-0.08043 z m 3.602564,-0.9524993 q 0,-0.1904999 -0.3683,-0.2666998 -0.2413,-0.0508 -0.321733,-0.0508 -0.0762,0 -0.406399,0.0635 -0.220134,0.042333 -0.2667,0.093133 -0.04657,0.0508 -0.04657,0.2751669 0,0.228599 0.0254,0.499532 0.02963,0.2667 0.05927,0.321734 0.0127,0.0042 0.0508,0.0042 0.131233,0 0.372533,-0.05503 0.2413,-0.05503 0.397933,-0.135467 0.08043,-0.04233 0.135466,-0.09737 0.05503,-0.05927 0.05927,-0.09313 0.0127,-0.105833 0.160866,-0.283633 0.148167,-0.182033 0.148167,-0.2751663 z m -1.350432,-0.6942661 q 0.1397,0 0.351366,-0.033867 0.211667,-0.0381 0.3556,-0.0381 0.05927,0 0.09313,0.00423 0.160867,0.021167 0.2286,0.029633 0.06773,0.00847 0.1905,0.033867 0.127,0.0254 0.1778,0.0508 0.05503,0.0254 0.131233,0.071967 0.0762,0.046567 0.105833,0.1100666 0.03387,0.059267 0.05927,0.1481665 0.0254,0.0889 0.0254,0.2031999 0,0.1820332 -0.05503,0.4063992 -0.0508,0.220134 -0.148166,0.224367 -0.0042,0.0085 -0.0085,0.03387 0,0.0254 0,0.02963 -0.04657,0.131233 -0.309033,0.347133 -0.262466,0.2159 -0.423333,0.245533 -0.09313,0.0254 -0.131233,0.0381 -0.03387,0.0127 -0.0508,0.03387 -0.01693,0.01693 -0.02117,0.01693 -0.08467,0.05503 -0.321733,0.05503 h -0.2032 l 0.0381,0.681566 q 0.02117,0.359833 0.02117,0.508 0,0.207433 -0.0381,0.300566 -0.0381,0.09313 -0.143933,0.1397 -0.02963,0.0127 -0.0635,0.0127 -0.143933,0 -0.173567,-0.237066 -0.04657,-0.321733 -0.110066,-1.202266 -0.05927,-0.880533 -0.05927,-1.189566 V 9.9738483 l -0.04233,0.0254 q -0.09313,0.067734 -0.1778,0.067734 -0.04657,0 -0.09313,-0.04233 -0.04233,-0.042333 -0.04233,-0.1100663 0,-0.1312332 0.258234,-0.397933 0.135466,-0.1396999 0.211666,-0.1904998 0.08043,-0.055033 0.169333,-0.055033 0.03387,0 0.08467,0.00847 0.0508,0.00423 0.1143,0.00423 z m 4.3264587,0.6942661 q 0,-0.1904999 -0.3682997,-0.2666998 -0.2413,-0.0508 -0.321733,-0.0508 -0.0762,0 -0.4064,0.0635 -0.220133,0.042333 -0.266699,0.093133 -0.04657,0.0508 -0.04657,0.2751669 0,0.228599 0.0254,0.499532 0.02963,0.2667 0.05927,0.321734 0.0127,0.0042 0.0508,0.0042 0.131234,0 0.372533,-0.05503 0.2413,-0.05503 0.397933,-0.135467 0.08043,-0.04233 0.135467,-0.09737 0.05503,-0.05927 0.05927,-0.09313 0.0127,-0.105833 0.1608662,-0.283633 0.1481665,-0.182033 0.1481665,-0.2751663 z M -11.08356,9.2838156 q 0.139699,0 0.351366,-0.033867 0.211666,-0.0381 0.3556,-0.0381 0.05927,0 0.09313,0.00423 0.160866,0.021167 0.2286,0.029633 0.067733,0.00847 0.1904995,0.033867 0.1269999,0.0254 0.1777999,0.0508 0.055033,0.0254 0.1312332,0.071967 0.0762,0.046567 0.1058332,0.1100666 0.033867,0.059267 0.059267,0.1481665 0.0254,0.0889 0.0254,0.2031999 0,0.1820332 -0.055033,0.4063992 -0.0508,0.220134 -0.1481665,0.224367 -0.00423,0.0085 -0.00847,0.03387 0,0.0254 0,0.02963 -0.046567,0.131233 -0.309033,0.347133 -0.2624669,0.2159 -0.4233329,0.245533 -0.09313,0.0254 -0.131233,0.0381 -0.03387,0.0127 -0.0508,0.03387 -0.01693,0.01693 -0.02117,0.01693 -0.08467,0.05503 -0.321733,0.05503 h -0.2032 l 0.0381,0.681566 q 0.02117,0.359833 0.02117,0.508 0,0.207433 -0.0381,0.300566 -0.0381,0.09313 -0.143933,0.1397 -0.02963,0.0127 -0.0635,0.0127 -0.143934,0 -0.173567,-0.237066 -0.04657,-0.321733 -0.110066,-1.202266 -0.05927,-0.880533 -0.05927,-1.189566 V 9.9738483 l -0.04233,0.0254 q -0.09313,0.067734 -0.1778,0.067734 -0.04657,0 -0.09313,-0.04233 -0.04233,-0.042333 -0.04233,-0.1100663 0,-0.1312332 0.258233,-0.397933 0.135467,-0.1396999 0.211667,-0.1904998 0.08043,-0.055033 0.169333,-0.055033 0.03387,0 0.08467,0.00847 0.0508,0.00423 0.1143,0.00423 z m 2.3494942,0.1947331 q 0,-0.1650998 0.1185333,-0.1650998 0.055033,0 0.1015999,0.046567 0.0508,0.046567 0.071967,0.0889 0.021167,0.042333 0.029633,0.067733 0.055033,0.1777999 0.1185332,1.4012323 0.0635,1.219199 0.1269999,1.325032 0.0127,0.0254 0.0889,0.0254 0.1312333,0 0.5460996,-0.0889 0.4148663,-0.0889 0.7789327,-0.173566 0.3682996,-0.0889 0.385233,-0.0889 0.071967,0 0.1439332,0.05927 0.071967,0.05503 0.071967,0.135467 0,0.0635 -0.097367,0.1397 -0.1439332,0.1143 -0.8424326,0.2794 -0.6984994,0.160866 -1.1218324,0.160866 -0.2963331,0 -0.3598331,-0.220133 -0.059267,-0.224367 -0.1100665,-1.405466 0,-0.01693 0,-0.02963 0,-0.0127 -0.00423,-0.02963 0,-0.01693 0,-0.02963 -0.046567,-1.0837319 -0.046567,-1.4985983 z m 4.754022,2.5611643 q 0.067733,-0.0381 0.1396999,-0.0381 0.0889,0 0.1523999,0.0508 0.067733,0.0508 0.067733,0.131233 0,0.122767 -0.1820332,0.2159 -0.1777999,0.09313 -0.6307662,0.224367 -0.2793997,0.1016 -0.4783662,0.1016 -0.0254,0 -0.0889,-0.0127 -0.0635,-0.0085 -0.1566332,-0.03387 -0.093133,-0.02117 -0.1608666,-0.0762 -0.0635,-0.05503 -0.0635,-0.131233 0,-0.09737 0.0508,-0.131233 0.0508,-0.03387 0.1693332,-0.03387 0.1777999,0 0.423333,-0.0889 l 0.2201331,-0.08043 -0.0381,-0.7239 q -0.0381,-0.761999 -0.0381,-1.210732 V 9.8341484 l -0.0762,0.0127 q -0.3428997,0.059267 -0.4995329,0.059267 -0.3047998,0 -0.3047998,-0.1354666 0,-0.055033 0.0508,-0.097367 0.055033,-0.046567 0.1608665,-0.084667 0.1100666,-0.0381 0.2158998,-0.067733 0.1058333,-0.029633 0.2666998,-0.071967 0.1608665,-0.042333 0.2709331,-0.0762 0.059267,-0.0254 0.4063997,-0.0254 0.3555997,0 0.4275663,0.055033 0.080433,0.067733 0.080433,0.1650999 0,0.1015999 -0.093133,0.1481665 -0.0889,0.046567 -0.3047998,0.067733 l -0.080433,0.00847 0.00847,0.6646329 q 0.021167,1.337732 0.084667,1.583265 z m 3.50942874,-2.3621978 q 0,0.1100666 -0.11853324,0.1100666 -0.0761999,0 -0.14393321,-0.042333 -0.0634999,-0.046567 -0.0888999,-0.093133 l -0.0254,-0.042333 q -0.0169333,-0.021167 -0.0634999,-0.021167 -0.21589984,0 -0.53763284,0.1354666 -0.3217331,0.1354665 -0.4952996,0.3048001 -0.1439332,0.139699 -0.2158998,0.440266 -0.071967,0.300566 -0.071967,0.897466 0,0.283633 0.080433,0.457199 0.0762,0.1651 0.2243665,0.270934 0.1481665,0.105833 0.3047997,0.105833 0.097367,0 0.3005665,-0.0889 0.2031998,-0.0889 0.2878664,-0.169333 l 0.23283312,-0.2159 q 0.10583324,-0.09737 0.22013314,-0.258233 0.11853324,-0.1651 0.19473317,-0.258233 0.0804333,-0.09313 0.14393322,-0.09313 0.0296333,0.0085 0.0423333,0.0127 0.0169333,0.0042 0.0381,0.04657 0.0211667,0.04233 0.0211667,0.1143 0,0.0889 -0.12276656,0.300566 -0.12276657,0.207433 -0.31749974,0.440267 -0.19473317,0.228599 -0.48259956,0.402166 -0.2878665,0.173566 -0.5672662,0.173566 -0.5884329,0 -0.9270992,-0.660399 -0.046567,-0.09313 -0.046567,-0.579966 0,-0.872066 0.084667,-1.159933 0.1142999,-0.3936992 0.5672662,-0.6900323 0.4571996,-0.2963331 0.8762993,-0.2963331 0.23706645,0 0.41909963,0.1439332 0.18626651,0.1396999 0.18626651,0.3132664 z m 1.1218285,3.1030308 q -0.0550333,0 -0.11853323,-0.0254 -0.0634999,-0.0254 -0.0634999,-0.08043 0,-0.08043 0.0888999,-0.207433 0.0888999,-0.131234 0.0888999,-0.173567 0,-0.1524 0.0931332,-0.2032 0.0169333,-0.0085 0.0508,-0.09737 0.0381,-0.09313 0.0888999,-0.211667 0.0508,-0.118533 0.10159992,-0.173566 Q 1.0957131,11.48938 1.4174461,10.727381 1.557146,10.401415 1.8069125,9.944215 2.0566789,9.4870154 2.1328789,9.4192821 q 0.1015999,-0.033867 0.1227665,-0.033867 0.067733,0 0.1396999,0.042333 0.071967,0.084667 0.2539998,0.5079996 0.1862665,0.4190996 0.1862665,0.5376326 0.00423,0.08467 0.080433,0.381 0.0762,0.2921 0.1058332,0.465666 0.021167,0.160867 0.1312332,0.541866 0.1100666,0.381 0.1100666,0.478367 0,0.04657 -0.021167,0.06773 -0.021167,0.02117 -0.093133,0.02117 -0.055033,0 -0.1566332,-0.04657 -0.067733,-0.03387 -0.1058332,-0.0889 -0.033867,-0.05503 -0.0508,-0.1143 -0.0127,-0.05927 -0.055033,-0.2286 -0.0381,-0.169333 -0.084667,-0.330199 l -0.080433,-0.275167 -0.1820332,0.02117 q -0.2666998,0.03387 -0.5757329,0.05503 l -0.3047997,0.02117 -0.1227666,0.182033 q -0.3301997,0.4826 -0.51646621,0.927099 -0.0973666,0.2286 -0.26246645,0.2286 z M 2.4207453,10.930581 q 0,-0.08043 -0.0762,-0.4064 -0.071967,-0.3302 -0.1269999,-0.461433 -0.1142999,0.160867 -0.2328332,0.410633 -0.1185332,0.249767 -0.1820332,0.4191 l -0.0635,0.169333 0.2793998,-0.01693 q 0.2624664,-0.01693 0.3301997,-0.03387 0.071967,-0.01693 0.071967,-0.08043 z M 6.7853084,9.4023488 q 0.1820332,0 0.3259664,0.067733 0.1439332,0.067733 0.1439332,0.1608665 0,0.071967 -0.059267,0.1227666 -0.059267,0.046567 -0.1523999,0.0635 -0.093133,0.016933 -0.1481665,0.021167 -0.0508,0.00423 -0.097367,0.00423 -0.2751665,0 -0.6180662,0.071967 l -0.2878664,0.0635 0.055033,0.2920993 q 0.0508,0.3175 0.1185332,1.223433 0.067733,0.905932 0.080433,0.999066 0.0127,0.0762 0.0127,0.148166 0,0.2032 -0.1735665,0.2032 -0.080433,0 -0.1312333,-0.05503 -0.046567,-0.05503 -0.0889,-0.220134 -0.0381,-0.165099 -0.0635,-0.406399 -0.021167,-0.245533 -0.0508,-0.681566 -0.029633,-0.4318 -0.071967,-0.766233 -0.0381,-0.334433 -0.0762,-0.491066 -0.033867,-0.156633 -0.0635,-0.1778 -0.0254,-0.01693 -0.0762,-0.01693 -0.033867,0 -0.3005664,0.04233 -0.2666998,0.04233 -0.423333,0.04233 -0.097367,0 -0.2793998,0.03387 -0.1820331,0.02963 -0.2539998,0.02963 -0.1185332,0 -0.1989665,-0.0508 -0.080433,-0.05503 -0.080433,-0.1354664 0,-0.097366 0.1227665,-0.1396998 0.1016,-0.033867 0.859366,-0.1439332 0.6773328,-0.097367 1.3419655,-0.2158999 0.5206996,-0.0889 0.6349995,-0.0889 z m 2.5399943,2.6373642 q 0.067733,-0.0381 0.1396999,-0.0381 0.0889,0 0.1523999,0.0508 0.067733,0.0508 0.067733,0.131233 0,0.122767 -0.1820331,0.2159 -0.1777999,0.09313 -0.6307662,0.224367 -0.2793997,0.1016 -0.4783662,0.1016 -0.0254,0 -0.0889,-0.0127 -0.0635,-0.0085 -0.1566332,-0.03387 -0.093133,-0.02117 -0.1608665,-0.0762 -0.0635,-0.05503 -0.0635,-0.131233 0,-0.09737 0.0508,-0.131233 0.0508,-0.03387 0.1693332,-0.03387 0.1777999,0 0.423333,-0.0889 l 0.2201331,-0.08043 -0.0381,-0.7239 q -0.0381,-0.761999 -0.0381,-1.210732 V 9.8341484 l -0.0762,0.0127 q -0.3428997,0.059267 -0.4995329,0.059267 -0.3047998,0 -0.3047998,-0.1354666 0,-0.055033 0.0508,-0.097367 0.055033,-0.046567 0.1608665,-0.084667 0.1100666,-0.0381 0.2158998,-0.067733 0.1058333,-0.029633 0.2666998,-0.071967 0.1608665,-0.042333 0.2709331,-0.0762 0.059267,-0.0254 0.4063997,-0.0254 0.3555997,0 0.4275663,0.055033 0.080433,0.067733 0.080433,0.1650999 0,0.1015999 -0.093133,0.1481665 -0.0889,0.046567 -0.3047998,0.067733 l -0.080433,0.00847 0.00847,0.6646329 q 0.021167,1.337732 0.084667,1.583265 z M 12.432564,11.46398 q 0.0254,-0.190499 0.1143,-0.529166 0.0889,-0.3429 0.0889,-0.423333 0,-0.105833 -0.1143,-0.3175 -0.110067,-0.2158993 -0.1651,-0.2709326 -0.04233,-0.0254 -0.1397,-0.0254 -0.1905,0 -0.495299,0.093133 -0.643466,0.1947334 -0.795866,1.0286994 -0.04233,0.262466 -0.04233,0.334433 0,0.1397 0.1016,0.406399 0.224367,0.601133 0.6096,0.601133 0.09737,0 0.2286,-0.04657 0.135466,-0.0508 0.355599,-0.351367 0.224367,-0.304799 0.254,-0.499533 z m -0.296333,1.126066 q -0.01693,0 -0.0381,0.02963 -0.01693,0.02963 -0.03387,0.04233 -0.0635,0.04233 -0.245533,0.06773 -0.182033,0.02963 -0.351366,0.02963 -0.127,0 -0.211667,-0.03387 -0.08043,-0.02963 -0.207433,-0.118534 -0.245533,-0.186266 -0.423333,-0.575732 -0.1778,-0.389467 -0.1778,-0.7366 0,-0.397933 0.182034,-0.795866 0.182033,-0.397933 0.474133,-0.5926659 0.270933,-0.1777999 0.406399,-0.1862666 0.03387,-0.00847 0.156633,-0.1185332 0.122767,-0.1100666 0.220134,-0.1100666 0.05927,0 0.1143,-0.055033 0.05927,-0.059267 0.190499,-0.059267 0.359833,0 0.5715,0.3301998 0.2159,0.3259664 0.2159,0.8762994 0,0.351366 -0.0889,0.728133 -0.0889,0.372533 -0.220133,0.647699 -0.127,0.275166 -0.275167,0.452966 -0.148166,0.1778 -0.258233,0.1778 z m 1.875361,-1.278465 q 0,0.203199 0.01693,0.355599 0.01693,0.1524 0.01693,0.198967 0,0.254 -0.06773,0.452966 -0.06773,0.198967 -0.169333,0.198967 -0.1778,0 -0.2286,-0.127 -0.0508,-0.127 -0.0508,-0.563033 0,-0.491066 0.0254,-1.375832 0.02963,-0.8889997 0.05927,-0.9863662 0.0042,-0.016933 0.01693,-0.0381 0.0127,-0.0254 0.07197,-0.0635 0.05927,-0.042333 0.1397,-0.042333 0.08467,0 0.173566,0.055033 0.0762,0.055033 0.351367,0.4190997 0.279399,0.3598335 0.279399,0.4190995 0.0085,0.02117 0.09737,0.148167 0.0889,0.127 0.275166,0.423333 0.1905,0.292099 0.3937,0.660399 0.414866,0.753533 0.554566,0.808566 0.0635,-0.1016 0.127,-1.007532 0.0762,-1.121833 0.122767,-1.3334993 0.0508,-0.2455331 0.182033,-0.2836331 0.0381,-0.0127 0.0889,-0.0127 0.1905,0 0.1905,0.2920998 0,0.097367 -0.02117,0.2963326 -0.02117,0.194734 -0.06773,0.6096 -0.04233,0.410633 -0.08043,0.876299 -0.01693,0.232833 -0.02963,0.3556 -0.0127,0.118533 -0.03387,0.262466 -0.02117,0.1397 -0.04233,0.2032 -0.02117,0.0635 -0.05927,0.127 -0.0381,0.05927 -0.0889,0.0762 -0.04657,0.02117 -0.118533,0.02117 -0.3175,0 -0.563033,-0.220133 -0.2413,-0.224367 -0.491067,-0.694267 -0.118533,-0.220133 -0.211666,-0.376766 -0.09313,-0.160866 -0.127,-0.207433 -0.03387,-0.04657 -0.05927,-0.09737 -0.02117,-0.05503 -0.04233,-0.135466 -0.02117,-0.0762 -0.1143,-0.224367 -0.09313,-0.148166 -0.254,-0.368299 -0.156633,-0.220134 -0.182033,-0.258233 -0.08043,0.393699 -0.08043,1.155699 z"
         id="path5" />
    </g>
  </g>
</svg>
