<?xml version="1.0" encoding="UTF-8" standalone="no"?>
<!-- Created with Inkscape (http://www.inkscape.org/) -->

<svg
   width="35mm"
   height="43mm"
   viewBox="0 0 35 43"
   version="1.1"
   id="svg1053"
   inkscape:version="1.3.2 (1:1.3.2+202311252150+091e20ef0f)"
   sodipodi:docname="giro3d_logo_compact.svg"
   xml:space="preserve"
   xmlns:inkscape="http://www.inkscape.org/namespaces/inkscape"
   xmlns:sodipodi="http://sodipodi.sourceforge.net/DTD/sodipodi-0.dtd"
   xmlns:xlink="http://www.w3.org/1999/xlink"
   xmlns="http://www.w3.org/2000/svg"
   xmlns:svg="http://www.w3.org/2000/svg"
   xmlns:rdf="http://www.w3.org/1999/02/22-rdf-syntax-ns#"
   xmlns:cc="http://creativecommons.org/ns#"
   xmlns:dc="http://purl.org/dc/elements/1.1/"><defs
     id="defs1047"><linearGradient
       id="linearGradient7"
       inkscape:collect="always"><stop
         style="stop-color:#4da6e9;stop-opacity:1;"
         offset="0"
         id="stop7" /><stop
         style="stop-color:#1567a5;stop-opacity:1;"
         offset="1"
         id="stop8" /></linearGradient><radialGradient
       inkscape:collect="always"
       xlink:href="#linearGradient7"
       id="radialGradient8-7-3"
       cx="25.080555"
       cy="423.03381"
       fx="25.080555"
       fy="423.03381"
       r="19.819786"
       gradientUnits="userSpaceOnUse"
       gradientTransform="matrix(0.90815008,0.73259198,-1.0342002,1.2820355,439.17174,-136.6796)" /></defs><sodipodi:namedview
     id="base"
     pagecolor="#ffffff"
     bordercolor="#666666"
     borderopacity="1.0"
     inkscape:pageopacity="0.0"
     inkscape:pageshadow="2"
     inkscape:zoom="1.3516125"
     inkscape:cx="92.112199"
     inkscape:cy="234.16475"
     inkscape:document-units="mm"
     inkscape:current-layer="layer1"
     showgrid="false"
     inkscape:window-width="1920"
     inkscape:window-height="1171"
     inkscape:window-x="1920"
     inkscape:window-y="0"
     inkscape:window-maximized="1"
     inkscape:showpageshadow="2"
     inkscape:pagecheckerboard="0"
     inkscape:deskcolor="#d1d1d1" /><metadata
     id="metadata1050"><rdf:RDF><cc:Work
         rdf:about=""><dc:format>image/svg+xml</dc:format><dc:type
           rdf:resource="http://purl.org/dc/dcmitype/StillImage" /></cc:Work></rdf:RDF></metadata><g
     inkscape:label="Calque 1"
     inkscape:groupmode="layer"
     id="layer1"
     transform="translate(0,-247)"><text
       xml:space="preserve"
       style="font-style:normal;font-weight:normal;font-size:24.7793px;line-height:0;font-family:sans-serif;letter-spacing:0px;word-spacing:0px;fill:#ffffff;fill-opacity:1;stroke:none;stroke-width:0.619482"
       x="16.980665"
       y="281.67996"
       id="text823-6-2-9-3-3-7-9-3-6"><tspan
         sodipodi:role="line"
         id="tspan821-0-4-6-3-3-4-9-3-7"
         x="16.980665"
         y="281.67996"
         style="font-style:normal;font-variant:normal;font-weight:600;font-stretch:normal;font-size:24.7793px;font-family:'URW Gothic L';-inkscape-font-specification:'URW Gothic L Semi-Bold';font-variant-ligatures:normal;font-variant-caps:normal;font-variant-numeric:normal;font-feature-settings:normal;text-align:start;writing-mode:lr-tb;text-anchor:start;fill:#ffffff;fill-opacity:1;stroke:none;stroke-width:0.619482">G</tspan></text><text
       xml:space="preserve"
       style="font-style:normal;font-weight:normal;font-size:7.78071px;line-height:0;font-family:sans-serif;letter-spacing:0px;word-spacing:0px;fill:#4da6e9;fill-opacity:1;stroke:none;stroke-width:0.194518"
       x="12.744155"
       y="293.36819"
       id="text823-6-2-9-9-0-5-7"><tspan
         sodipodi:role="line"
         id="tspan821-0-4-6-35-8-6-6"
         x="12.744155"
         y="293.36819"
         style="font-style:normal;font-variant:normal;font-weight:600;font-stretch:normal;font-size:7.78071px;font-family:'URW Gothic L';-inkscape-font-specification:'URW Gothic L Semi-Bold';font-variant-ligatures:normal;font-variant-caps:normal;font-variant-numeric:normal;font-feature-settings:normal;text-align:start;writing-mode:lr-tb;text-anchor:start;fill:#4da6e9;fill-opacity:1;stroke-width:0.194518">GIRO<tspan
   style="fill:#1976bd;fill-opacity:1;stroke-width:0.194518"
   id="tspan1120-9-7-1-6-1">3D</tspan></tspan></text><path
       d="m 5.1741184,286.8935 h 3.848011 q -0.06132,0.96584 -0.74354,1.75537 -0.84319,0.95817 -2.207624,0.95817 -1.264784,0 -2.146301,-0.81253 -0.866185,-0.78953 -0.927508,-1.95467 -0.0077,-0.092 -0.0077,-0.1763 0,-1.18813 0.820194,-2.02365 0.812528,-0.83553 2.023655,-0.88919 0.07665,-0.008 0.160972,-0.008 1.188131,0 2.008325,0.68988 0.467587,0.39093 0.674551,0.91984 h -0.636224 q -0.467587,-0.82786 -1.448753,-1.03482 -0.268288,-0.0537 -0.551906,-0.0537 -1.073151,0 -1.786029,0.72055 -0.689883,0.69754 -0.689883,1.69404 0,1.01949 0.72821,1.71704 0.720543,0.68988 1.755367,0.68988 1.019493,0 1.694045,-0.67455 0.475252,-0.47525 0.597898,-1.00416 h -3.165794 z"
       style="font-size:7.66536px;line-height:1.25;font-family:'URW Gothic L';-inkscape-font-specification:'URW Gothic L, Normal';letter-spacing:0px;word-spacing:0px;fill:#4da6e9;stroke-width:0.191634"
       id="path2193-0-3"
       inkscape:export-filename="giro3d_logo_compact.png"
       inkscape:export-xdpi="140.68694"
       inkscape:export-ydpi="140.68694" /><path
       d="m 9.9189744,289.50739 v -5.6647 H 10.48621 v 5.6647 z"
       style="font-size:7.66536px;line-height:1.25;font-family:'URW Gothic L';-inkscape-font-specification:'URW Gothic L, Normal';letter-spacing:0px;word-spacing:0px;fill:#4da6e9;stroke-width:0.191634"
       id="path2195-6-5" /><path
       d="m 13.820641,287.39175 1.586729,2.11564 h -0.705213 l -1.908674,-2.5679 q 0.873851,0 1.264784,-0.0996 0.85852,-0.22996 0.85852,-1.19579 0,-0.78953 -0.597898,-1.08082 -0.436925,-0.20696 -1.303111,-0.20696 h -0.797197 v 5.15112 h -0.567237 v -5.6647 h 1.402761 q 1.080816,0 1.586729,0.27595 0.850855,0.45992 0.850855,1.5484 0,1.24946 -1.126808,1.60973 -0.245291,0.0843 -0.54424,0.11498 z"
       style="font-size:7.66536px;line-height:1.25;font-family:'URW Gothic L';-inkscape-font-specification:'URW Gothic L, Normal';letter-spacing:0px;word-spacing:0px;fill:#4da6e9;stroke-width:0.191634"
       id="path2197-3-6" /><path
       d="m 19.071392,283.74304 q 1.1728,0 2.03132,0.78953 l 0.252957,0.25296 q 0.705213,0.82786 0.705213,1.89334 0,1.12681 -0.789532,1.97 -0.774202,0.83552 -1.901009,0.94284 -0.153308,0.0153 -0.298949,0.0153 -1.195797,0 -2.061982,-0.80486 -0.84319,-0.78954 -0.927509,-1.93934 -0.0077,-0.10732 -0.0077,-0.2223 0,-1.09614 0.789532,-1.93167 0.766536,-0.82786 1.878013,-0.9505 0.160973,-0.0153 0.329611,-0.0153 z m 0,0.52124 q -0.973501,0 -1.68638,0.68989 -0.712878,0.7512 -0.735874,1.7017 0,1.00417 0.705213,1.71705 0.712878,0.71287 1.717041,0.71287 0.981166,0 1.686379,-0.69754 0.712878,-0.73588 0.728209,-1.70171 0,-0.98884 -0.705213,-1.70171 l -0.252957,-0.2223 q -0.651556,-0.49825 -1.456418,-0.49825 z"
       style="font-size:7.66536px;line-height:1.25;font-family:'URW Gothic L';-inkscape-font-specification:'URW Gothic L, Normal';letter-spacing:0px;word-spacing:0px;fill:#4da6e9;stroke-width:0.191634"
       id="path2199-2-2" /><path
       d="m 23.586285,285.25311 h -0.559572 q 0.03066,-0.93517 0.674552,-1.31844 0.32961,-0.19163 0.758871,-0.19163 0.75887,0 1.165134,0.55957 l 0.130311,0.23763 0.09199,0.26828 q 0.03833,0.17631 0.03833,0.36794 0,0.68222 -0.582568,1.08848 0.95817,0.48292 0.95817,1.52541 0,0.83552 -0.605563,1.3721 -0.498249,0.44459 -1.1728,0.44459 -0.835525,0 -1.364434,-0.59023 -0.130311,-0.13798 -0.222296,-0.29895 -0.222295,-0.39094 -0.245291,-0.98117 h 0.559571 q 0.03833,0.52891 0.222295,0.80486 0.375603,0.55191 1.034824,0.55191 0.620894,0 0.981166,-0.49825 0.245292,-0.33727 0.245292,-0.7742 0,-0.62856 -0.482918,-1.01183 -0.206965,-0.16864 -0.475252,-0.22996 -0.183969,-0.0383 -0.659221,-0.046 v -0.50591 l 0.130311,0.008 q 0.06899,0.008 0.145642,0.008 0.636224,0 0.873851,-0.46759 0.09198,-0.18397 0.09198,-0.4216 0,-0.5519 -0.421595,-0.78953 -0.130311,-0.069 -0.275953,-0.092 -0.07665,-0.0153 -0.160972,-0.0153 -0.659221,0 -0.827859,0.62856 l -0.04599,0.28362 q 0,0.046 0,0.0843 z"
       style="font-size:7.66536px;line-height:1.25;letter-spacing:0px;word-spacing:0px;fill:#2978b4;stroke-width:0.191634;fill-opacity:1"
       id="path2201-0-9" /><path
       d="m 27.227322,289.50739 v -5.6647 h 1.333773 q 1.28778,0 1.969997,0.33727 0.09965,0.0537 0.191634,0.10732 1.1728,0.69755 1.280116,2.1463 0.0077,0.13031 0.0077,0.26062 0,1.57907 -1.257119,2.35327 l -0.05366,0.0383 q -0.720544,0.4216 -1.947001,0.4216 z m 0.567237,-0.51358 h 0.789532 q 1.27245,0 1.878013,-0.39093 0.08432,-0.0537 0.160973,-0.11498 0.751205,-0.60557 0.804863,-1.67105 0.0077,-0.069 0.0077,-0.14564 0,-1.08082 -0.720544,-1.72471 -0.145642,-0.12265 -0.306614,-0.2223 -0.605564,-0.36793 -1.824356,-0.36793 h -0.789532 z"
       style="font-size:7.66536px;line-height:1.25;letter-spacing:0px;word-spacing:0px;fill:#2978b4;stroke-width:0.191634;fill-opacity:1"
       id="path2203-6-1" /><g
       id="g8-0-2"
       transform="matrix(-0.84311687,-0.17368469,0.17368469,-0.84311687,-33.156998,630.23546)"><circle
         style="fill:url(#radialGradient8-7-3);fill-opacity:1;stroke-width:1;stroke-linecap:round;stroke-linejoin:round"
         id="path2-3-2-7"
         cx="28.097811"
         cy="428.05579"
         r="19.819786" /><path
         style="fill:#2d82c3;fill-opacity:1;stroke:none;stroke-width:0.239871px;stroke-linecap:butt;stroke-linejoin:miter;stroke-opacity:1"
         d="m 26.984799,409.4396 c 5.636859,5.31994 5.906832,20.11434 5.906832,25.71437 -11.120627,0.18492 -17.896063,-1.20672 -22.845975,-8.36284 1.804811,-9.51193 8.512128,-16.46414 16.939143,-17.35153 z"
         id="path3-3-0"
         sodipodi:nodetypes="cccc" /><path
         id="path7-7-9"
         style="fill:#e6f2fa;fill-opacity:1;stroke:none;stroke-width:0.264583px;stroke-linecap:butt;stroke-linejoin:miter;stroke-opacity:1"
         d="m 10.045898,426.79109 c 4.949907,7.15612 11.725019,8.54772 22.845634,8.3628 l -5.906616,-8.3566 z" /><path
         id="path3-62-5-3"
         style="fill:#2d82c3;fill-opacity:1;stroke:none;stroke-width:0.239871px;stroke-linecap:butt;stroke-linejoin:miter;stroke-opacity:1"
         d="m 26.984916,409.4397 v 17.35708 l 5.906616,8.35711 c 0,-5.60002 -0.269762,-20.39426 -5.906616,-25.71419 z" /><path
         id="path3-6-9-6"
         style="fill:#89b9e4;fill-opacity:1;stroke:none;stroke-width:0.239871px;stroke-linecap:butt;stroke-linejoin:miter;stroke-opacity:1"
         d="m 26.984916,409.4397 c -8.427006,0.88739 -15.134208,7.83947 -16.939018,17.35139 l 16.939018,0.006 z" /></g></g></svg>
